<svg xmlns="http://www.w3.org/2000/svg" xmlns:xlink="http://www.w3.org/1999/xlink" class="card" preserveAspectRatio="none" viewBox="-120 -168 240 336"><defs><symbol id="h" preserveAspectRatio="xMinYMid" viewBox="-500 -500 1000 1000"><path fill="none" stroke="red" stroke-linecap="square" stroke-miterlimit="1.5" stroke-width="80" d="M-285-460h200m-100 0v920m-100 0h200M85-460h200m-100 20-355 595M85 460h200m-100-20L-10-70"/></symbol><symbol id="a" preserveAspectRatio="xMinYMid" viewBox="-600 -600 1200 1200"><path fill="red" d="M-400 0C-350 0 0-450 0-500 0-450 350 0 400 0 350 0 0 450 0 500 0 450-350 0-400 0Z"/></symbol><symbol id="g" preserveAspectRatio="none" viewBox="0 0 1300 2000"><path fill="none" stroke="#44F" stroke-linecap="round" stroke-linejoin="round" stroke-width="3" d="M545 265c2.63987-9.53087 17.64423-23.57026 27.90274-22.03192C591.20689 245.71293 610 280 620 280m10 10c-10 0-20 10-20 10m-26.99236-28.15901c.35325 1.98028.54101 4.05503.54101 6.19243 0 13.80712-7.83502 25-17.5 25s-17.5-11.19288-17.5-25c0-4.4285.80602-8.58806 2.21992-12.19562M120.80243 496.81511c-3.72523 13.38464-7.11981 15.26559-16.17249 17.23428m-8.167173-5.55799c-3.72523 13.38464-11.328782 13.37882-20.381462 15.34751m4.126133 6.10386c-3.72523 13.38464-7.70036 14.1045-18.204409 13.751m7.587402 14.58715c-5.031462 10.62704-11.038508 10.47607-19.655778 9.54203M181.95213 517.2424C188.17857 532.90274 210 535 210 535M65 590c4.796977.89471 7.936894-1.11044 10-5m33.20402-33.97373c4.79698.89471 7.93689-2.90642 10-6.79598M65 590c4.796977.89471 7.936894-1.11044 10-5m61.02627-52.30911c4.79698.89471 6.65405-2.64985 8.71716-6.53941m-61.057059 40.66297c4.79698.89471 7.93689-2.64985 10-6.53941"/><use xlink:href="#a" width="120" height="120" transform="matrix(1 0 0 .972 590 941.68)"/><use xlink:href="#a" width="120" height="120" transform="matrix(1 0 0 .972 510 941.68)"/><use xlink:href="#a" width="170" height="170" stroke="#44F" stroke-linecap="round" stroke-linejoin="round" stroke-width="42.352" transform="scale(1 .972) rotate(-15 2420.3402404 -824.61316576)"/><use xlink:href="#a" width="150" height="150" stroke="#44F" stroke-linecap="round" stroke-linejoin="round" stroke-width="48" transform="scale(1 .972) rotate(-10 4324.31028742 -1626.39089598)"/><use xlink:href="#a" width="130" height="130" stroke="#44F" stroke-linecap="round" stroke-linejoin="round" stroke-width="55.384" transform="matrix(.9962 -.08472 .08716 .9683 382.58222135 827.5669188)"/><use xlink:href="#a" width="110" height="110" stroke="#44F" stroke-linecap="round" stroke-linejoin="round" stroke-width="65.454" transform="matrix(1 0 0 .972 405 928.54)"/><use xlink:href="#a" width="100" height="100" stroke="#44F" stroke-linecap="round" stroke-linejoin="round" stroke-width="72" transform="scale(1 .972) rotate(10 -5755.48118418 2861.42198319)"/><use xlink:href="#a" width="90" height="90" transform="scale(1 .972) rotate(60 -200.00149447 1588.25813238)"/><use xlink:href="#a" width="90" height="90" transform="scale(1 .972) rotate(50 -503.25336814 1773.15416654)"/><use xlink:href="#a" width="90" height="90" transform="matrix(.76604 .62479 -.64279 .7446 1088.4534425 1058.37768601)"/><use xlink:href="#a" width="90" height="90" transform="scale(1 .972) rotate(30 -1695.54193623 2497.3768062)"/></symbol><symbol id="f" preserveAspectRatio="none" viewBox="0 0 1300 2000"><path fill="none" stroke="#44F" stroke-linecap="round" stroke-linejoin="round" stroke-width="6" d="M1205 261.18164v97.63672m-15-106.68946v115.7422m-15-17.56056v29.9961m0-89.9004-.0001 39.18749m.0001-89.90038v29.99609m-15 98.6836v27.98437m0-98.00194.0001 23.28907M1160 223.64258v27.98437m-15 54.2461v8.2539M520.13446 778.54293C616.39636 754.40581 684.39171 730.93507 767.92578 660h142.39453c-156.78693 297.27564-107.90582 528.8569-68.79652 765.2537M525.76562 808.05859C620.59119 784.3522 694.85471 758.78386 778.83594 690h83.00586c-131.84598 281.90144-89.77828 512.978-51.06863 736.0453m178.593 6.9c-100.11207-264.7467-182.72861-466.03675 10.68463-790.00389L1031.6582 590H741.76562l-9.92187 8.75586c-78.34926 69.1317-127.84875 86.3742-220.13096 109.72454m505.38411 712.8423c-89.0757-265.3039-178.62756-449.20585 8.7136-763.00239L1084.5078 560H730.42383l-18.42969 16.25977c-74.36078 65.61245-115.84262 79.92381-204.67112 102.39284M426.29144.00702507C462.76227 61.819745 494.76219 122.79563 510 190c220-50 290 135 490 75-6.14797-107.70306 56.1226-197.854751 111.9664-265.01834848M614.75871.03174285C631.48735 41.409963 670.70575 49.676525 670.33977 90.060085c-.4078 44.996545-60.97867 44.224205-60.33467-.77015.43526-30.409995 34.90628-29.556141 34.47696.44009-.2147 14.998125-21.76276 14.723075-21.5481-.27505M599.09597.04408137C581.14616 40.794213 541.83979 48.101132 541.05119 88.409775c-.88018 44.990505 59.69066 45.764495 60.33466.77015.43527-30.410001-34.0476-30.436316-34.47693-.44008-.21468 14.998125 21.33342 15.273165 21.54809.27505M910 3.4099281C906.04174 78.461564 973.50376 86.980972 967.93973 136.58643c-5.01372 44.69932-73.04277 36.17196-67.76365-8.49498 3.56795-30.188676 42.24149-24.92367 38.72211 4.85427-1.75972 14.88897-25.96102 11.85506-24.20132-3.03391M910 3.4099281C896.36123 77.247999 828.88472 68.851326 822.73189 118.38296c-5.5443 44.63282 62.48457 53.16184 67.76365 8.49494 3.56796-30.188691-35.20268-34.632196-38.7221-4.85425-1.75969 14.88897 22.44162 17.92288 24.20131 3.0339m-384.09036 3.74634C710 100 880 200 1015.6035 156.59474m-20.19268 5.32816C1002.4081 149.77019 1007.2538 135.65937 1010 120c8.2712-.94453 15.9872-2.11301 23.2045-3.47492m-81.71625 50.84911c19.21873-13.48839 30.89168-37.15278 31.90284-75.195325 30.42501-1.54844 52.50071-5.644041 69.80531-11.195181M466.51909 71.25512c9.446 5.241489 19.35411 9.278943 29.91392 11.366113 3.98484 11.50305 8.45187 24.996677 17.21275 39.740407.76253 1.28327 1.56561 2.56007 2.40931 3.8285m36.57338-2.29721c-21.40993-18.82096-24.13357-45.133634-35.89962-69.78784-25.03004 2.19191-54.5511-18.945704-83.54589-45.7892097M698.80445 133.69588c9.72323-12.91028 17.51651-28.17792 22.5967-45.675673 10.84696-3.769131 20.57045-9.546158 28.66027-16.603965 6.14753 8.853184 14.18715 16.870197 23.79899 23.219253.78534 19.911645 5.34936 38.047205 12.74223 53.992355M757.09165.05247459C747.11204 32.94264 733.17361 60.760947 697.08876 62.687238c-4.62937 30.513837-16.39157 51.692442-33.04347 66.458802m160.49298 26.22777c-15.84674-19.38451-24.21104-44.72947-21.01153-79.264388C768.85613 65.233805 762.11592 34.58927 760.38141.04274993M.12758657 733.28026C160.87224 627.13785 273.94651 577.15097 405.89243 531.56472M1084.5078 560c58.5556 0 155.0482 48.39296 215.6064 93.99597m-239.3165-5.45863c113.0963 71.76959 182.6168 159.56987 221.4243 276.26361m-236.754-250.49914c108.8239 68.97904 172.6262 150.48598 209.0911 262.34741m45.5122-50.45963c-42.8568-108.74733-115.3279-194.41875-223.9006-263.39141m-77.4355 140.10168c94.5834 60.40167 136.8968 120.76076 165.8987 221.53143M988.56827 785.96404c89.06273 57.04368 124.76233 109.89846 152.39653 206.61799l1.791 6.26957M973.92304 823.82292c78.20346 50.36129 103.12766 90.66162 128.58086 179.74738l5.9889 20.9627m-63.1236 257.0588 3.3378-9.8242c51.421-130.6216 135.3498-196.3419 251.2491-246.2589m-145.8655 202.4399c35.8119-56.2116 81.9276-90.805 145.8142-120.7726m-186.5255 142.2542c42.7642-84.6421 101.8335-131.0659 186.517-169.5437m-222.025 186.6938c47.6872-111.379 119.4528-168.5747 222.0057-213.8957m-329.04874 147.3178c70.83964-149.5388 191.11764-228.61106 329.12894-282.40702M981.74106 1237.1891c64.31674-157.148 179.43374-237.31586 318.25244-292.74602M1002.2784 1300.143c108.097-44.3645 209.4748-97.7156 297.742-168.6012m-329.81718 66.8542c-13.49084-48.2508-23.45105-95.1341-27.49619-142.5171-9.68778-113.47839 12.8984-231.1969 104.56837-384.74413l58.6973-98.32032 7.0893-9.68201m-73.17 847.47336c-19.6674-59.8732-42.01691-121.2993-58.39794-173.9602M523.07617 809.99999 814.875 810M527.68361 915.00002 788.32812 915m-261.06639 25.00002L783.95703 940m329.14387 260.2546 20.7305 13.4466m8.6319-52.2366 18.5101 16.0333m7.8545-42.9273 16.4611 17.8458m18.9079-46.5199 14.1 19.8096m17.7159-40.4383 12.3359 21.0656m30.262-43.7352 10.5793 22.2621m-193.8269 145.6376 21.8236 11.5782M1220 603.86522V160l80-80.000001m-40 546.748051V176.56836l39.9995-39.99853m-80.0176 216.09449C1178.5001 366.00542 1146.587 405.67533 1120 460c-1.436-40.36288-8.3056-82.08674 20-115-16.063-8.51062-30.6803-9.46321-50-35 19.3197-25.53679 33.937-26.48938 50-35-28.3056-32.91326-21.436-74.63712-20-115 26.587 54.32467 58.5001 93.99458 99.9819 107.33568m-71.6809 144.09906c.056-3.19695.1942-6.27513.4412-9.2238 1.32-15.75587 4.7198-26.855 14.0039-37.65039l24.4941-28.48243-33.1953-17.58789c-8.6379-4.57661-14.026-6.53096-18.7031-8.49023 4.6771-1.95927 10.0652-3.91362 18.7031-8.49023l33.1953-17.58789-24.4941-28.48243c-9.2841-10.79539-12.6839-21.89452-14.0039-37.65039-.247-2.94867-.385-6.02685-.4412-9.22381M1120 160c-80.2538 116.73042-51.7455 210.78734 0 300M708.55864 618.37566A42 42 0 0 1 730 655v0a42 42 0 0 1-42 42 42 42 0 0 1-41.59831-36.20511m39.62681-25.19497A19.5 19.5 0 0 1 688 635.5a19.5 19.5 0 0 1 19.5 19.5 19.5 19.5 0 0 1-19.5 19.5 19.5 19.5 0 0 1-19.5-19.5 19.5 19.5 0 0 1 2.09058-8.7842m126.63799-56.21929A42 42 0 0 1 800 605a42 42 0 0 1-42 42 42 42 0 0 1-41.43645-35.14286m53.88961-21.86255A19.5 19.5 0 0 1 777.5 605a19.5 19.5 0 0 1-19.5 19.5 19.5 19.5 0 0 1-19.5-19.5 19.5 19.5 0 0 1 7.05511-15.01249m138.23451.00218A42 42 0 0 1 885 600a42 42 0 0 1-42 42 42 42 0 0 1-42-42 42 42 0 0 1 1.21089-10.01241m57.52303.001A19.5 19.5 0 0 1 862.5 600a19.5 19.5 0 0 1-19.5 19.5 19.5 19.5 0 0 1-19.5-19.5 19.5 19.5 0 0 1 2.76669-10.01231m145.02293.002A42 42 0 0 1 972.5 600a42 42 0 0 1-42 42 42 42 0 0 1-42-42 42 42 0 0 1 1.21089-10.01241m57.52303.001A19.5 19.5 0 0 1 950 600a19.5 19.5 0 0 1-19.5 19.5A19.5 19.5 0 0 1 911 600a19.5 19.5 0 0 1 2.76669-10.01231m88.19401 49.77017A42 42 0 0 1 973.5 600a42 42 0 0 1 1.21089-10.01241m39.37631 29.46116A19.5 19.5 0 0 1 996 600a19.5 19.5 0 0 1 2.76669-10.01231m-38.47274 125.7534A42 42 0 0 1 928.5 675a42 42 0 0 1 42-42 42 42 0 0 1 28.73891 11.37199m-28.082 50.11694A19.5 19.5 0 0 1 970.5 694.5 19.5 19.5 0 0 1 951 675a19.5 19.5 0 0 1 19.5-19.5 19.5 19.5 0 0 1 16.78498 9.57456m-60.6197 126.75001A42 42 0 0 1 888.5 750a42 42 0 0 1 42-42 42 42 0 0 1 28.2289 10.9013m-22.75716 49.81527A19.5 19.5 0 0 1 930.5 769.5 19.5 19.5 0 0 1 911 750a19.5 19.5 0 0 1 19.5-19.5 19.5 19.5 0 0 1 17.49368 10.88483m-46.75674 130.6087A42 42 0 0 1 900.5 872a42 42 0 0 1-42-42 42 42 0 0 1 42-42 42 42 0 0 1 24.63624 7.98448m-17.41646 52.12973A19.5 19.5 0 0 1 900.5 849.5 19.5 19.5 0 0 1 881 830a19.5 19.5 0 0 1 19.5-19.5 19.5 19.5 0 0 1 16.27796 8.76324M641.0431 663.73365A42 42 0 0 1 655 695a42 42 0 0 1-42 42 42 42 0 0 1-42-42 42 42 0 0 1 .10369-2.94948m44.81909-16.33023A19.5 19.5 0 0 1 632.5 695a19.5 19.5 0 0 1-19.5 19.5 19.5 19.5 0 0 1-19.5-19.5 19.5 19.5 0 0 1 4.1583-12.03671m-31.95215 10.68698A42 42 0 0 1 575 720a42 42 0 0 1-42 42 42 42 0 0 1-15.08264-2.80161m20.87302-57.81885A19.5 19.5 0 0 1 552.5 720a19.5 19.5 0 0 1-19.5 19.5 19.5 19.5 0 0 1-19.5-19.5 19.5 19.5 0 0 1 5.3419-13.40888m276.31684-460.17927C741.57829 377.81587 800 422.2098 800 500c0 55-115 90-115 0 0-55 75-55 75-10 0 35-62.76516 44.8906-60 10 3.05186-38.5082 47.48736-19.35457 35-5m47.51711-254.26746c-57.74021 135.59971-2.03271 172.15783-2.03271 251.05728C780.4844 546.78982 695 550 700 500m70-265c-61.78804 140.32061-10 175-10 255m47.99686-238.17905C758.18508 379.05176 815 423.287 815 500c0 30.82308-36.11806 55.36475-67.87165 55.14387m73.91938-298.24272C774.70049 380.24547 830 424.31698 830 500c0 30.82308-36.11806 55.36475-67.87165 55.14387m72.19501-293.56093C791.10233 381.37499 845 425.28242 845 500c0 30.82308-36.11806 55.36475-67.87165 55.14387m70.61971-289.10483C807.44112 382.47731 860 426.21624 860 500c0 30.82308-36.11806 55.36475-67.87165 55.14387m69.33546-285.32569C823.57988 383.43372 875 427.01992 875 500c0 30.82308-36.11806 55.36475-67.87165 55.14387m68.33436-282.27555C839.50111 384.22051 890 427.67663 890 500c0 30.82308-36.11806 55.36475-67.87165 55.14387m67.60912-280.00201C855.189 384.81584 905 428.1709 905 500c0 30.82308-36.11806 55.36475-67.87165 55.14387m67.15482-278.54799C870.62945 385.20061 920 428.48918 920 500c0 30.82308-36.11806 55.36475-67.87165 55.14387m66.97193-277.95576C885.80896 385.35825 935 428.6193 935 500c0 30.82308-36.11806 55.36475-67.87165 55.14387m67.06646-278.26238C900.71601 385.27657 950 428.5519 950 500c0 30.82308-36.11806 55.36475-67.87165 55.14387M949.583 275.63358C915.3379 384.94561 965 428.27835 965 500c0 30.82308-36.11806 55.36475-67.87165 55.14387m68.16153-281.73882C929.66341 384.36036 980 427.79294 980 500c0 30.82308-36.11806 55.36475-67.87165 55.14387m69.22463-284.99274C943.68034 383.51895 995 427.09125 995 500c0 30.82308-36.11806 55.36475-67.87165 55.14387m70.7421-289.45778C957.33493 382.38901 1010 426.14173 1010 500c0 30.82308-36.11806 55.36475-67.87165 55.14387M520 532.77778C465.79585 598.50432 405 580 405 540s65-45 65-5c0 30-45 25-45 5 0-10 0-10 5-15m70 9.44444c-25.08277 26.79136-49.17691 31.34092-67.46305 18.09251M540 532.22222c-20 40-57.91528 45.68364-79.40254 45.12203M560 533.88889c-20 40-55.86273 43.19595-77.34999 42.63434M580 535c-20 40-55.86273 42.08484-77.34999 41.52323M600 533.33333c-20 40-55.86273 43.75151-77.34999 43.1899M620 531.66667c-20 40-55.86273 45.41817-77.34999 44.85656M640 530.55556c-20 40-55.86273 46.52928-77.34999 45.96767M660 531.11111c-20 40-55.86273 45.97373-77.34999 45.41212M680 530c-20 40-55.86273 47.08484-77.34999 46.52323m92.87257-38.51066c-20.53037 32.95263-52.90713 39.03249-72.87257 38.51066M517.82728 188.82725C514.88589 200.90948 510 221.50505 510 225c0 5 15 20 15 25s-25 30-35 45-25 60-25 70-5 20 10 20 20 15 20 15l-10 15 10 25s-1.83772 13.67544-5 20c-5 10 20 15 20 20s-20.43692 15.01913-20 20c3.90773 44.54792-24.38342 56.24006-25 50m70-200c15 0 10 40-10 30-30-15-45 5-15-5m105 35c2.20477-6.06312 7.38336-10 15-10 25 0 10 45-30 45s-85-35-85-35v-15c40 15 30 45 85 50m-105-5c20 0 40 5 60 20-22.92526-16.54382-40-35-70-45m40-205-5 15s45-5 55-5c30 0 60 45 95 45-35 0-65-55-95.29027-56.16109-9.99266-.38305-13.61398 9.41945-33.61398 9.41945C536.3817 218.25836 525 210 525 210v0m105 80c-30 0-45.34554-24.91813-65-25-10.13785-.0422-30 5-30 5m60.87082 9.64438C610.87277 299.64662 557.3738 309.07226 545 295M239.86931 597.1156C233.83109 582.48372 222.96633 557.69108 210 535c-20-35-45-15-35 5s20 35 20 35m-19.70973-35.06535C173.60935 538.91322 154.06592 512.45682 125 500c-35-15-33.237561 7.22236-10 25 11.23211 8.593 50 65 50 65m-60-74.70973C85 495 60 500 80 530s55 75 55 75m-55-75c-15-20-30 0-15 20 18.973666 25.29822 40 80 40 80m-32.968084-69.41945C45 530 44.063832 561.80699 54.063832 581.80699 59.063831 591.80699 75 645 80 655l10.701172 21.40234M1037.5644 687.8699c4.7228 7.86815 11.4714 18.19567-8.3426 39.34101-9.1264 9.73964-2.6874 24.1805 10.7782 7.78909 20-35 35-15 45.124-20.98813-2.6894 9.83243 20.2095 20.5981-10.0912 47.185C1065 770 1070 785 1085 770c21.1313-34.32885 35.4708-13.85011 45.7847-19.50475-3.0087 9.73945 19.5268 21.24648-11.6252 46.83065-10.3147 8.47111-5.8067 23.62626 9.6747 9.12363 29.05-27.94811 37.8082-4.53242 49.209-7.42596-5.3504 8.67657 13.5882 25.45717-22.9752 42.43109-12.1064 5.62018-11.5346 21.42125 6.0078 12.39993 31.1715-23.04358 37.0029 1.26683 48.6718-.21194-6.3705 7.95777 10.3757 26.92678-27.9878 39.30574-12.7024 4.09875-14.0656 19.85129 5.6553 12.03573 35.6899-18.74104 37.5728 6.18798 49.3282 6.58763-7.5572 6.84089 5.9522 28.23612-33.8938 34.34339-13.1932 2.02216-17.0493 17.35616 3.6651 12.78314m-180.0215-250.93625c4.5725 14.6211-28.11348 34.81884-9.7014 47.17428C1037.2714 768.67924 1052.0945 752.41929 1070 735c-14.9048 20.04709-30.6967 38.70115-10 55 19.4354 16.73082 36.5198-2.19539 54.984-19.02122C1099.4331 790.52891 1085 810 1097.3901 827.45879c12.7916 18.0245 38.1415-.88827 60.2289-12.5578C1137.6704 829.93722 1112.3377 843.18676 1125 865c12.5467 21.61399 39.1886 10.78859 62.5364 1.90541C1165.9 879.3914 1144.1675 892.81609 1155 915c10.3717 21.24013 33.2374 11.17453 57.7024 6.12551-23.9263 7.68906-52.1643 19.08863-29.3024 51.67133"/></symbol><symbol id="e" preserveAspectRatio="none" viewBox="0 0 1300 2000"><path d="m1084.5078 560-58.6973 98.32031c-187.34106 313.79654-97.78858 497.69809-8.7128 763.00199l23.0918-10.2657-57.76177-175.5117C1046.8746 1079.4869 1161.6683 999.67987 1300 944.44336v-26.82813c-138.0212 53.79548-258.3284 132.83987-329.17188 282.38677l.79493 2.7089-1.41993-4.3144c-13.49084-48.2508-23.45095-95.1346-27.49609-142.5176-9.68778-113.47837 12.89838-231.1969 104.56837-384.74413l58.6973-98.32032-29.7813 49.91602C1184.6867 691.72775 1257.1346 777.35088 1300 886.01562v-232.0996c-52.1129-39.22645-130.6733-80.47322-187.9805-91.01172l-.064.10742zM220 625c-38.24283 16.86912-50.72991 39.82024-50.18359 65.84961-13.28958-.34787-27.53429 4.81132-43.6211 20.5957C129.14064 701.54104 129.6134 690.78569 130 680c-38.311658 16.89948-50.775937 39.90293-50.181641 65.99023-9.150694.74028-18.788122 4.28441-29.185547 12.21485C54.075525 747.82091 54.590337 736.42898 55 725c-38.537308 16.99901-50.9221158 40.17375-50.1699219 66.45117-1.5942952.20849-3.2041957.51147-4.8300781.90235v13.44921c6.4550922-.82275 13.029216-.95336 22.259766-.58593C13.210678 807.83817 6.8373963 809.67947 0 811.01562v13.97071c15.19651.00072 32.096716-6.11846 51.394531-20.84766-11.463177-5.78838-22.949782-11.43728-35.183593-12.78125 13.190575-5.09022 21.792967-11.76219 27.439453-19.45117 22.216707 12.23644 47.947119 11.84991 80.484379-12.98437-10.80315-5.45511-21.62773-10.78362-33.078129-12.50586 19.824819-7.61171 29.327649-18.78077 34.013669-31.60743 23.0285 14.30487 49.76513 15.29249 84.06446-10.88671-9.73511-4.9158-19.48738-9.73402-29.69922-11.9004 17.50466-6.37097 27.30161-15.39824 32.84765-25.88867 22.52767 13.01392 48.64459 13.13452 81.85157-12.21093-23.7779-12.00676-47.65411-23.4465-78.10938 3.05664C219.11573 646.92693 219.60641 635.98055 220 625Zm-15 25c-9.29458 18.58916-14.42789 24.36992-31.14258 41.13086-.4679-.0505-.93611-.10298-1.40625-.14063C185.52163 669.58711 190.88484 664.11516 205 650Zm52.2793 4.80664c2.37707.0159 4.92783.0822 7.7207.19336-19.15353 5.54847-26.53952 7.60643-51.5293 8.73047.20119-.43709.38211-.88071.57032-1.32227 19.61931-5.65292 27.96423-7.70402 43.23828-7.60156zm-85 50c2.37707.0159 4.92783.0822 7.7207.19336-19.93451 5.77471-27.00557 7.77529-54.58008 8.86914.0526-.15236.0952-.30813.14649-.46094 22.23837-6.43816 30.55106-8.70998 46.71289-8.60156zM115 705c-9.24144 18.48288-14.36538 24.30049-30.851562 40.83984-.535247-.007-1.072902-.00008-1.611329.0117C95.545291 724.565 100.91555 719.08445 115 705Zm-75 45c-9.287268 18.57454-14.418469 24.36152-31.1015625 41.0918-.5207871.0215-1.0444515.0601-1.5683594.0996C20.490717 769.61957 25.84063 764.15937 40 750Zm47.279297 9.80664c2.377069.0159 4.92783.0822 7.720703.19336-18.541551 5.37119-26.021403 7.47382-49.138672 8.62305.418893-.68737.813976-1.38301 1.19336-2.08399 17.575675-5.02058 25.720701-6.82972 40.224609-6.73242zM523.07617 810l4.60742 105h260.64453L814.875 810Zm467.70899 71.87109-2.30469 9.46289c-13.93563 57.21716-16.33715 109.63622-11.89649 161.65232.99746 11.6837 2.41448 23.3868 4.16602 35.1309l2.11914 14.2109 8.61524-11.498c21.29782-28.4219 44.77012-53.8249 69.99222-76.6211l2.7832-2.5156-1.043-3.6055c-17.2201-59.46375-30.2536-90.30006-65.01563-119.90235zm7.12695 22.38282c26.41369 25.13479 37.62049 51.97746 52.73439 103.68749-21.3047 19.5174-41.3226 40.9825-59.90431 64.4629-.85527-6.8316-1.62148-13.6472-2.20117-20.4375-4.08728-47.8767-2.1436-95.76657 9.37109-147.71289z"/></symbol><symbol id="d" preserveAspectRatio="none" viewBox="0 0 1300 2000"><path fill="#44F" d="M600 445c-40 0-85-35-85-35v-15c40 15 30 45 85 50m-75-235-5 15s45-5 55-5c30 0 60 45 95 45-35 0-65-55-95.29027-56.16109-9.99266-.38305-13.61398 9.41945-33.61398 9.41945C536.3817 218.25836 525 210 525 210Zm49.66702 73.06149a11.248988 20.384647 0 0 1-11.24899 20.38465 11.248988 20.384647 0 0 1-11.24899-20.38465 11.248988 20.384647 0 0 1 11.24899-20.38464 11.248988 20.384647 0 0 1 11.24899 20.38464zm-85.65816 289.63694 133.64115 3.8248c19.96544.52183 52.3422-5.55803 72.98839-38.35624 8.82161 11.65309 21.89723 16.73002 35.87243 16.96944L730.42383 560l-18.42969 16.25977c-74.36078 65.61245-115.84262 79.92381-204.95079 102.13167-5.83569-35.70851-11.98026-70.7978-18.03449-105.69301zM800 605c0 23.19596-18.80404 42-42 42-29.83941.63699-35.20181-40.06181-49.39258-28.5957C721.82111 625.84521 730 639.83231 730 655c0 23.19596-18.80404 42-42 42-20.92772 0-38.65526-15.40633-41.58398-36.11914-1.7829.98077-3.56529 1.93576-5.34961 2.87695C649.93331 671.72327 655 683.07962 655 695c0 23.19596-18.80404 42-42 42-17.87462 0-33.13143-11.17088-39.19531-26.9082C574.58751 713.31547 575 716.63884 575 720c0 23.19596-18.80404 42-42 42-5.15691 0-10.26911-.94888-15.08203-2.80078l2.2168 19.34375C616.39667 754.40585 684.39171 730.93507 767.92578 660h142.39453c-156.78693 297.27564-107.90617 528.8571-68.79687 765.2539 30.59918.3778 51.77184 10.1961 52.52911 40.46l95.31268-32.7686c-74.33169-196.5704-139.01586-358.1578-88.23437-560.95116-.21045.00294-.42039.00586-.63086.00586-23.19596 0-42-18.80404-42-42s18.80404-42 42-42c8.80364 0 17.3828 2.76816 24.52734 7.9082.51273-1.36306 1.02957-2.72657 1.55274-4.09375C905.00303 789.79234 888.5 771.68115 888.5 750c0-23.19596 18.80404-42 42-42 10.39004 0 20.40683 3.85348 28.12109 10.80859.51029-1.03432 1.01901-2.06867 1.53516-3.10547C941.54316 710.97321 928.5 694.21691 928.5 675c0-23.19596 18.80404-42 42-42 10.66714 0 20.93338 4.05835 28.7168 11.35156.28021-.4708.5526-.93884.834-1.41015l1.9023-3.18555C984.93904 633.95822 973.5 617.97535 973.5 600c0-3.37003.40653-6.72693 1.20898-10h-3.41796c.80242 3.27303 1.20899 6.63002 1.20898 10 0 23.19596-18.80404 42-42 42s-42-18.80404-42-42c0-3.37003.40653-6.72693 1.20898-10h-5.91796c.80242 3.27303 1.20899 6.63002 1.20898 10 0 23.19596-18.80404 42-42 42s-42-18.80404-42-42c0-3.37003.40653-6.72693 1.20898-10-9.20029-1.20745-2.26146 7.46758-2.20898 15zm175.10352-15 55.56638 1.6543.9883-1.6543zm23.63168 172.89986c94.5834 60.40167 136.8968 120.76076 165.8987 221.53143l18.7661-11.63445c-22.8619-32.5827 5.3761-43.98227 29.3024-51.67133-24.465 5.04902-47.3307 15.11462-57.7024-6.12551-10.8325-22.18391 10.9-35.6086 32.5364-48.09459-23.3478 8.88318-49.9897 19.70858-62.5364-1.90541-12.6623-21.81324 12.6704-35.06278 32.619-50.09901-22.0874 11.66953-47.4373 30.5823-60.2289 12.5578C1085 810 1099.4331 790.52891 1114.984 770.97878 1096.5198 787.80461 1079.4354 806.73082 1060 790c-20.6967-16.29885-4.9048-34.95291 10-55-17.9055 17.41929-32.7286 33.67924-53.2083 19.93631-18.41208-12.35544 14.2739-32.55318 9.7014-47.17428m228.066 228.88719c-36.4649-111.86143-100.2672-193.36837-209.0911-262.34741l-7.9036 13.56809c4.7228 7.86815 11.4714 18.19567-8.3426 39.34101-9.1264 9.73964-2.6874 24.1805 10.7782 7.78909 20-35 35-15 45.124-20.98813-2.6894 9.83243 20.2095 20.5981-10.0912 47.185C1065 770 1070 785 1085 770c21.1313-34.32885 35.4708-13.85011 45.7847-19.50475-3.0087 9.73945 19.5268 21.24648-11.6252 46.83065-10.3147 8.47111-5.8067 23.62626 9.6747 9.12363 29.05-27.94811 37.8082-4.53242 49.209-7.42596-5.3504 8.67657 13.5882 25.45717-22.9752 42.43109-12.1064 5.62018-11.5346 21.42125 6.0078 12.39993 31.1715-23.04358 37.0029 1.26683 48.6718-.21194-6.3705 7.95777 10.3757 26.92678-27.9878 39.30574-12.7024 4.09875-14.0656 19.85129 5.6553 12.03573 35.6899-18.74104 37.5728 6.18798 49.3282 6.58763-7.5572 6.84089 5.9522 28.23612-33.8938 34.34339-13.1932 2.02216-17.0493 17.35616 3.6651 12.78314zm-111.8033 62.20238-1.791-6.26957c-27.6342-96.71953-63.3338-149.57431-152.39653-206.61799l-14.64523 37.85888c78.20346 50.36129 103.12766 90.66162 128.58086 179.74738l5.9889 20.9627"/></symbol><symbol id="c" preserveAspectRatio="none" viewBox="0 0 1300 2000"><path fill="red" d="M750.06055 71.416016c-8.08982 7.057807-17.8132 12.834384-28.66016 16.603515-5.08019 17.497749-12.87292 32.765689-23.08984 45.496089-57.34444-8.46649-118.20953-13.38592-182.86524-7.31054-.23353-1.28345-1.0363-2.56048-1.79883-3.84375-8.76088-14.74373-13.22805-28.237186-17.21289-39.740236-10.55981-2.08717-20.46867-6.123532-29.67773-10.007813C485.60878 111.4191 500.83584 149.58268 510 190c220-50 290 135 490 75-3.10327-54.36459 11.2261-104.25691 33.2832-148.72656-7.2955 1.61396-15.012 2.78203-23.2832 3.72656-2.7462 15.65937-7.5914 29.77038-15.18164 42.07617-62.43846 13.15325-131.21343.63488-208.16797-13.49023-7.44024-15.9039-12.00372-34.03953-12.78906-53.951174-9.61184-6.349056-17.65325-14.365566-23.80078-23.21875ZM1300 136.57031l-40 39.99805 1.2617 450.92969c14.2413 8.90673 27.2118 17.77157 38.7383 26.43164zm-186.9375 426.5625-7.0898 9.68164-58.6973 98.32032zm-88.0039 26.09375c-8.7637.25357-24.385 4.42685-26.29102.76172C996.95705 593.01418 996 596.4738 996 600c0 10.22139 7.8934 18.70867 18.0879 19.44922-2.5656-4.93351 19.2511-23.80086 16.6855-28.73438-.6353-1.22171-2.7936-1.5728-5.7148-1.48828zm-279.50391.76172C741.08573 593.69291 738.5 599.19518 738.5 605c0 10.76955 8.73045 19.5 19.5 19.5s19.5-8.73045 19.5-19.5c0-5.80106-2.58284-11.30117-7.04688-15.00586zm80.71289 0C824.45705 593.01418 823.5 596.4738 823.5 600c0 10.76955 8.73045 19.5 19.5 19.5s19.5-8.73045 19.5-19.5c0-3.5258-.9555-6.98606-2.76562-10.01172zm87.5 0C911.95705 593.01418 911 596.4738 911 600c0 10.76955 8.73045 19.5 19.5 19.5S950 610.76955 950 600c0-3.5258-.9555-6.98606-2.76562-10.01172zM688 635.5c-.65843 0-1.31564.033-1.9707.0996l-15.43946 10.61523C669.21531 648.93901 668.5 651.9487 668.5 655c0 10.76955 8.73045 19.5 19.5 19.5s19.5-8.73045 19.5-19.5-8.73045-19.5-19.5-19.5zm282.5 20c-10.76955 0-19.5 8.73045-19.5 19.5s8.73045 19.5 19.5 19.5c.21902 0 .43736-.005.65625-.0117l16.12891-29.41406C983.77607 659.13997 977.39413 655.5 970.5 655.5Zm-354.57812 20.2207-18.26368 7.24219C594.96412 686.3967 593.5 690.63546 593.5 695c0 10.76955 8.73045 19.5 19.5 19.5s19.5-8.73045 19.5-19.5c0-9.64087-7.04617-17.83427-16.57812-19.2793zM778.83594 690c-83.98123 68.78386-158.24572 94.35221-254.41602 119.0293l290.46875.77343C827.24941 770.71955 842.71522 730.89476 861.8418 690Zm-240.04492 11.37891-19.94922 5.21289C515.41163 710.21363 513.5 715.01164 513.5 720c0 10.76955 8.73045 19.5 19.5 19.5s19.5-8.73045 19.5-19.5c0-8.53906-5.55507-16.08548-13.70898-18.62109zM930.5 730.5c-10.76955 0-19.5 8.73045-19.5 19.5s8.73045 19.5 19.5 19.5c1.85186 0 3.6952-.26356 5.47266-.7832l12.02148-27.33203C944.7122 734.72058 937.9285 730.5 930.5 730.5Zm-30 80c-10.76955 0-19.5 8.73045-19.5 19.5s8.73045 19.5 19.5 19.5c2.47269 0 4.92374-.47122 7.2207-1.38672l9.05664-28.84961C913.16876 813.79272 907.05386 810.5 900.5 810.5Zm73.37891 13.07227c-30.28734 84.62012-37.40112 159.34009-31.17188 232.30663 4.04514 47.383 14.00524 94.2663 27.80859 143.3203 35.46708-73.4062 82.79598-130.262 138.20118-174.9765l-6.2129-20.6524c-25.4532-89.08574-50.378-129.3864-128.62499-179.99803zm323.72849 121.93359-9.2754 3.73633L1300 978.20703v-26.76172zm-97.8262 46.55078-8.6874 4.95313 36.7324 64.40043 8.6855-4.9551zM1300 1054.0137l-21.3887 8.584 10.5782 22.2617 10.8105-4.8379zm-191.6797 2.7285-7.4141 6.7109 49.4766 54.6621 7.4141-6.709zm127.6934 28.5254-31.8164 20.6289 14.0996 19.8105 30.0527-19.373zm-67.1856 49.3027-26.3652 26.8945 18.5098 16.0332 24.3164-25.082zm-133.6465 3.5547-5.5878 8.293 61.8281 41.6562 5.5879-8.293zm77.92 62.1289-17.7383 30.2441 21.8242 11.5782 16.6445-28.375zM983.75 1233.1641l-3.76953 9.2617 69.16793 28.1601 3.7715-9.2617z"/></symbol><symbol id="b" preserveAspectRatio="none" viewBox="0 0 1300 2000"><path fill="#FC4" d="M426.28125 0C462.75286 61.814306 494.76186 122.79415 510 190c220-50 290 135 490 75-6.14769-107.69816 56.1153-197.837366 111.957-265H426.28125zM1300 80l-80 80 .459 444.0918c29.1573 15.31294 56.8802 32.77835 79.541 49.82812V80zM730.42383 560l-18.42969 16.25977c-74.36078 65.61245-115.84337 79.92354-204.67187 102.39257l18.44335 129.40625C620.5912 784.3522 694.85471 758.78386 778.83594 690h83.00586c-36.78346 78.64714-60.01816 153.33497-73.57813 225H527.68359l-.42187 25h256.63086c-28.00362 175.1226.23259 332.4822 26.88086 486.0449 48.28627-3.559 94.94466-5.651 84.22656 43.9551l122.0977-48.6777c-89.07578-265.3039-178.62826-449.20545 8.7128-763.00199L1084.5078 560H730.42383zm330.37307 88.53711-15.3281 25.76562c108.8237 68.97904 172.6249 150.48428 209.0898 262.34571l27.6641-11.84766c-38.8075-116.69374-108.3295-204.49408-221.4258-276.26367zm-23.2324 39.33203-11.0723 19.89258c4.5725 14.6211-28.11324 34.81839-9.7012 47.17383 20.4797 13.74293 35.3035-2.51626 53.209-19.93555-14.9048 20.04709-30.6967 38.70115-10 55 19.4354 16.73082 36.5202-2.19565 54.9844-19.02148-15.5509 19.55013-29.9839 39.02167-17.5938 56.48046 12.7916 18.0245 38.1411-.88906 60.2285-12.55859C1137.6705 829.93662 1112.3377 843.18676 1125 865c12.5467 21.61399 39.1893 10.78943 62.5371 1.90625C1165.9007 879.39224 1144.1675 892.81609 1155 915c10.3717 21.24013 33.2381 11.17402 57.7031 6.125-23.9263 7.68906-52.1646 19.08916-29.3027 51.67188l23.1133-14.09766c-20.7144 4.57302-16.8573-10.76104-3.6641-12.7832 39.846-6.10727 26.3373-27.50286 33.8945-34.34375-11.7554-.39965-13.6382-25.32894-49.3281-6.58789-19.7209 7.81556-18.3586-7.93641-5.6562-12.03516 38.3635-12.37896 21.6177-31.34887 27.9882-39.30664-11.6689 1.47877-17.5003-22.83069-48.6718.21289-17.5424 9.02132-18.1142-6.78021-6.0078-12.40039 36.5634-16.97392 17.6242-33.75507 22.9746-42.43164-11.4008 2.89354-20.159-20.52233-49.209 7.42578-15.4814 14.50263-19.9885-.65194-9.6738-9.12305 31.152-25.58417 8.6163-37.09063 11.625-46.83008C1120.4713 756.15073 1106.1313 735.67115 1085 770c-15 15-19.9996.0004-9.9668-8.80273 30.3007-26.5869 7.4004-37.35312 10.0898-47.18555C1074.999 719.99985 1060 700 1040 735c-13.4656 16.39141-19.9037 1.95058-10.7773-7.78906 19.814-21.14534 13.0646-31.47365 8.3418-39.3418zM1300 1025.4961c-115.9181 49.919-199.8665 115.6362-251.293 246.2715l-3.1601 9.8496c-14.1711 6.3701-28.6586 12.5292-43.2891 18.3476 12.1852 35.715 25.4267 73.4781 37.9317 111.0918 79.0265-34.5097 160.3202-78.7522 259.8105-144.4511v-241.1094z"/></symbol><path id="i" d="M-82.4-130.4H82.4v260.8H-82.4z"/></defs><rect width="239" height="335" x="-119.5" y="-167.5" fill="#fff" stroke="#000" rx="12" ry="12"/><use xlink:href="#b" width="164.8" height="260.8" x="-82.4" y="-130.4"/><use xlink:href="#b" width="164.8" height="260.8" x="-82.4" y="-130.4" transform="rotate(180)"/><use xlink:href="#c" width="164.8" height="260.8" x="-82.4" y="-130.4"/><use xlink:href="#c" width="164.8" height="260.8" x="-82.4" y="-130.4" transform="rotate(180)"/><use xlink:href="#d" width="164.8" height="260.8" x="-82.4" y="-130.4"/><use xlink:href="#d" width="164.8" height="260.8" x="-82.4" y="-130.4" transform="rotate(180)"/><use xlink:href="#e" width="164.8" height="260.8" x="-82.4" y="-130.4"/><use xlink:href="#e" width="164.8" height="260.8" x="-82.4" y="-130.4" transform="rotate(180)"/><use xlink:href="#f" width="164.8" height="260.8" x="-82.4" y="-130.4"/><use xlink:href="#f" width="164.8" height="260.8" x="-82.4" y="-130.4" transform="rotate(180)"/><use xlink:href="#g" width="164.8" height="260.8" x="-82.4" y="-130.4"/><use xlink:href="#g" width="164.8" height="260.8" x="-82.4" y="-130.4" transform="rotate(180)"/><use xlink:href="#h" width="32" height="32" x="-114.4" y="-156"/><use xlink:href="#a" width="26.769" height="26.769" x="-111.784" y="-119"/><use xlink:href="#a" width="55.68" height="55.68" x="-89.68" y="-132.16"/><g transform="rotate(180)"><use xlink:href="#h" width="32" height="32" x="-114.4" y="-156"/><use xlink:href="#a" width="26.769" height="26.769" x="-111.784" y="-119"/><use xlink:href="#a" width="55.68" height="55.68" x="-89.68" y="-132.16"/></g><use xlink:href="#i" fill="none" stroke="#44F"/></svg>
