<svg xmlns="http://www.w3.org/2000/svg" xmlns:xlink="http://www.w3.org/1999/xlink" class="card" preserveAspectRatio="none" viewBox="-120 -168 240 336"><defs><symbol id="h" preserveAspectRatio="xMinYMid" viewBox="-500 -500 1000 1000"><path fill="none" stroke="red" stroke-linecap="square" stroke-miterlimit="1.5" stroke-width="80" d="M-285-460h200m-100 0v920m-100 0h200M85-460h200m-100 20-355 595M85 460h200m-100-20L-10-70"/></symbol><symbol id="a" preserveAspectRatio="xMinYMid" viewBox="-600 -600 1200 1200"><path fill="red" d="M0-300c0-100 100-200 200-200s200 100 200 250C400 0 0 400 0 500 0 400-400 0-400-250c0-150 100-250 200-250S0-400 0-300Z"/></symbol><symbol id="g" preserveAspectRatio="none" viewBox="0 0 1300 2000"><path fill="none" stroke="#44F" stroke-linecap="round" stroke-linejoin="round" stroke-width="3" d="M801.77158 1151.0524c4.93725 11.4106 3.38034 18.2681.82102 27.5369m3.70766 3.763c4.93725 11.4106 3.9961 13.1368 1.43678 22.4056m-1.02627-79.4582c4.93725 11.4106 3.79085 14.3683 1.23153 23.6371m138.30767-963.93699 118.22853.00001m-125.875 18.33338h118.166m-125.17966 18.33337h132.95506M910 239.99994h161.8867M1145 215c10.0348-1.68096 20.0344.0259 30 5m-52.4953-14.37261c10.0348-1.68096 14.6978-1.61614 24.6634 3.35796m28.8259 11.56815c10.0348-1.68096 10.1822-1.00037 20.1478 3.97373m4.0635-.21689c10.0348-1.68096 9.6063-2.45023 19.5719 2.52387M1135 170c-5 10 21.2531 16.10233 24.9574 15.2878M1185 180c3.0348-2.38827 6.4188-1.98258 10 0m15.0411 4.31034c3.0348-2.38827 6.4188-1.98258 10 0m-62.9557-11.49425c3.0348-2.38827 6.4188-1.98258 10 0M840 1130c2.31135 4.3239 1.48061 7.3012 0 10m-1.02627 17.5041c2.31135 4.3239 1.48061 7.3012 0 10m4.10509 20.5829c2.31135 4.3239 1.48061 7.3012 0 10M445 295c10 0 15.00029 24.16493 35.33662 24.58949C500 320 520 295 525 295m120.81706.40551c-10 0-15.00029 24.16493-35.33662 24.58949-19.66338.41051-39.66338-24.58949-44.66338-24.58949M440 295c15 0 23.45181-28.0163 40-30 12.60273-1.51074 35 15 35 15m130 0s-29.10487-16.41305-41.7076-14.90231c-16.54819 1.9837-25 30-40 30C570 295 575 320 575 320m-135-20c2.6212 18.99845 24.18433 33.08549 25 30m40 70c-15 15-21.76362 25.73723-30 40m120-50c5 20 33.2353 43.59159 35 40m-95 60c5-20 25-15 35-5m-76.00811-202.26515a14.7578 20.000009 0 0 1 1.00812 7.26514v0a14.7578 20.000009 0 0 1-10.67112 19.21789m-6.2072.57458a14.7578 20.000009 0 0 1-12.63728-19.79247 14.7578 20.000009 0 0 1 .34015-4.26927m18.50433 23.48716a14.7578 20.000009 0 0 1-4.08668.78212 14.7578 20.000009 0 0 1-2.12052-.20754m138.69268-25.54062a14.7578 20.000009 0 0 1 .92784 6.97968v0a14.7578 20.000009 0 0 1-9.4157 18.64369m-13.53066-2.00485a14.7578 20.000009 0 0 1-6.56924-16.63884 14.7578 20.000009 0 0 1 1.10356-7.58852m18.99634 26.23221a14.7578 20.000009 0 0 1-5.3421 1.35632 14.7578 20.000009 0 0 1-8.18856-3.36117M780 560l-20.95176 14.50503M780 575l-24.72468 17.11709M780 590l-28.27716 19.57646m26.13986-3.09682-29.28827 20.27652m25.92516-2.94817-28.95467 20.04553m25.88329-2.91923-28.49629 19.72822m25.73454-2.81618-28.20992 19.52991m25.59598-2.72029-27.77155 19.22646m25.56706-2.70024-27.52925 19.05867m25.41957-2.59816-27.17955 18.81661m25.42181-2.59971-26.90827 18.6288m25.29485-2.51182-26.65437 18.45303m25.29259-2.5103-26.33584 18.23255m25.18753-2.43748-26.16618 18.11501m25.18617-2.43659-25.81424 17.8714m25.09752-2.3752-25.68821 17.78414m24.76256 12.85669-25.23696 17.47174m25.54968-32.68824-25.33853 17.54206m24.76389 12.85577-24.90018 17.23859m24.96609-2.28422-24.82401 17.18585m24.92425-2.25525-24.52511 16.97892m24.92557-2.25616-24.44538 16.92372m24.89439-2.23458-24.18345 16.74239m24.89662-2.23612-24.09793 16.68319m24.87926-2.2241-23.86587 16.52252m24.87926-2.2241-23.77944 16.46269m24.87349-2.22007-23.56831 16.31648m24.87255-2.21946-23.48501 16.25885m24.87752-2.22291-23.29172 16.12503m24.87926-2.2241-23.21861 16.0744m24.89665-2.2361-23.03867 15.9498m24.89661-2.2361-22.97362 15.9048m24.92201-2.2537-22.80078 15.7852m24.92425-2.2552-22.75223 15.7515m85.10999-104.10489 29.27887 39.31699m-30.66058-66.7349 27.28196 36.63543m-27.38774-62.34001 25.40708 34.11776m-24.55167-58.5316 23.89154 32.08262m-22.08818-55.22352 22.72102 30.51082m-20.21642-52.71007 21.66001 29.08603m-18.52481-50.43848 20.91973 28.09197m-17.21829-48.68402 20.27214 27.22232m-16.05779-47.12564 19.70426 26.45975m-15.02912-45.74431 19.20985 25.79585m-14.11294-44.51401 18.77829 25.21631m-13.30104-43.42374 18.40215 24.71123m-12.57563-42.44966 18.07364 24.27009m-11.9296-41.58213 17.78947 23.8885m-11.35518-40.81078 17.54425 23.55921M886.9222 664.4566l17.33336 23.27601m-10.38812-39.51217 17.26336 23.18202m-10.09392-39.11711 17.08255 22.93921m-9.68796-38.57196 16.90406 22.69954m-9.25937-37.99643 16.80328 22.56419m-8.98321-37.62557 16.52688 22.19303m-8.54147-37.0324 16.54477 22.21706m-8.38749-36.82563 16.43558 22.07042m-7.96382-36.25666 16.12876 21.65844M845.13137 1099.8276c2.31135 4.3239 1.48061 7.3012 0 10m-31.98382-13.2963c4.93725 11.4106 3.17509 13.5473.61577 22.8161M835 1005l29.27887 34.317M840 1035l32.97345 37.1906m-28.38396-4.317 24.01348 24.001M882.18391 1230C875 1222.4959 850 1235 850 1235m-99.53475-135.9966 31.22454 28.9942m-26.43427-4.546 32.02155 29.7343m-26.6561-4.7521 32.91785 30.5666m-26.92861-5.0052 33.91941 31.4966m-27.25255-5.306 35.03853 32.5358m-27.63347-5.6596 36.29225 33.6999m-28.08406-6.078 37.69695 35.0043m-28.60668-6.5634 39.27373 36.4685m-29.21931-7.1322 41.38121 38.4254m-30.09228-7.9428 43.04513 39.9704m-30.32624-8.16L870 1410m-23.97642-2.2638L870 1430m233.3428 11.683-5.2482 8.5683m-4.7889-18.8502-13.469 21.9899m3.4315-32.271-13.4682 21.9886m3.6024-32.5502-13.5758 22.1643m3.7683-32.8209-13.5758 22.1641m3.8025-32.8764-13.6116 22.2227m4.0561-33.2909-13.7073 22.379m4.1525-33.448-13.7087 22.3812m4.3142-33.7123-13.8688 22.6426m4.5912-34.1642-13.8689 22.6427m4.6176-34.2075-13.89493 22.6853m4.92513-34.7096-14.06534 22.9634m5.09467-34.9862-14.06405 22.9612m5.31466-35.3453-14.28379 23.3201m5.65459-35.9005-14.30156 23.3491m3.7156-39.4019-14.50167 23.6757m6.24916-36.871-14.59008 23.8201m6.43825-37.1799-14.68805 23.9801m6.85808-37.8653-14.94082 24.3928m6.72154-37.6424-11.43623 18.6711"/><use xlink:href="#a" width="90" height="90" transform="scale(1 .972) rotate(85 91.39492 949.0889953)"/><use xlink:href="#a" width="90" height="90" transform="scale(1 .972) rotate(60 -84.99164845 1174.29230477)"/><use xlink:href="#a" width="90" height="90" transform="scale(-1 -.972) rotate(-70 -1166.3940473 282.23408426)"/><use xlink:href="#a" width="90" height="90" transform="scale(-1 -.972) rotate(-50 -1593.20224999 543.422594)"/></symbol><symbol id="f" preserveAspectRatio="none" viewBox="0 0 1300 2000"><path fill="none" stroke="#44F" stroke-linecap="round" stroke-linejoin="round" stroke-width="6" d="M520.67154.15333364C537.3411 53.116136 586.60866 55.241083 589.31551 99.717354c2.73364 44.916716-59.29063 48.357336-61.78245 3.426376-1.68413-30.367153 33.64304-31.911895 35.30426-1.95793.8306 14.97699-21.23454 16.20069-22.06515 1.22371M514.20907.15062765C503.64469 54.963442 454.69175 62.457563 456.92455 107.0596c2.24991 44.94354 64.27426 41.50458 61.78244-3.42638-1.68412-30.367154-36.96546-27.996039-35.30425 1.95793.83061 14.97699 22.89578 13.75328 22.06517-1.22371M832.11662.151462c6.7834 59.166621 64.41685 69.895824 59.32991 115.353098-5.00454 44.72085-74.79385 36.48121-69.51707-8.20834 3.56638-30.203985 43.24189-25.102554 39.72404 4.69048-1.75893 14.89652-26.58645 11.96497-24.82753-2.93155M826.80954.19510649C806.2199 55.490102 748.09992 52.697722 742.48137 97.915274c-5.54883 44.656586 64.2403 52.897876 69.51708 8.208326 3.56638-30.203984-36.20618-34.483501-39.72404-4.69047-1.75893 14.89652 23.0686 17.82806 24.82752 2.93154m118.0682 52.95244c1.33864-1.27098 2.64843-2.58913 3.92763-3.95595 15.60971-16.67894 24.64727-39.04433 27.48664-65.252398 29.8435-5.393105 52.31161-13.121303 70.1046-21.992404M869.23698 150.94471c31.57604-11.86502 50.33462-38.36271 48.17568-88.740256C1009.262 51.367195 1024.6525 23.340318 1060.6095-.06277296M358.63423 61.952994c12.53269 9.250185 25.94893 16.772429 40.90654 20.551884 3.37698 11.715955 7.126 25.447242 15.19424 40.676812 3.99924 7.54896 9.3573 14.96494 16.11086 21.90143m44.98265-3.60538c-42.08277-20.38976-40.42679-54.228325-53.7705-86.257882-27.12275.767848-57.7642-24.581243-87.18314-55.16082294M611.67853 136.29171c12.67803-15.58815 22.29872-34.75108 27.29011-57.128893 10.83363-4.514189 20.3772-10.953338 28.15969-18.556611 6.9095 8.404505 15.69623 15.843303 25.97471 21.508847 2.33533 21.048797 8.89518 39.800497 18.47892 55.838377M666.43854.0966978c-8.12463 28.5274202-21.50026 51.5556972-54.11789 55.4843302-3.38734 40.084059-20.275 65.198162-45.13283 81.448492M750 140c-18.05303-18.31361-28.7105-43.234764-27.84256-78.428989-32.15882-7.490109-42.89764-32.045437-47.83821-61.48460804M1065.1204.7735955C969.34483 124.54323 947.92415 174.63271 926.83703 234.74018M320.68067.46742879C381.18385 95.27569 411.58558 153.36624 436.21759 219.9128m-11.47149-29.19958c195.60581-18.08698 355.68578-9.66579 512.81092 15.1526m-501.49374 13.94196c186.86291-16.6342 340.0395-8.66029 490.85049 14.75716m-521.53863-87.20675c211.0674-20.77229 383.09236-11.4511 551.22103 15.99019m-77.58332 929.77712c-49.15381-164.68134-27.33077-350.91447 107.38617-564.98689 57.77198 131.4202 191.47878 271.96697 313.63668 376.13922M1107.4183 1445.858c-72.6151-72.3467-134.27897-149.4875-178.47976-232.3994M-.01717161 673.5168C108.11417 587.21659 237.91202 528.54543 369.2567 471.84679m394.89509 80.26904c-77.42114 322.26163-23.6565 629.83467 95.18989 885.70097M510.82663 744.3989l168.29212-164.78601m-65.62058 29.26433-111.1726 108.85653m16.56303 53.76032c76.09799-74.51071 152.19291-149.02456 228.29101-223.53516M557.65625 950h173.7129m-180.30633-40.72819 183.11547-179.30055m4.54398-39.43846L545.4157 879.81216m10.69132 59.50971 174.94539-171.30072m-1.23407 156.97882L570.73438 925M385 505c-10 0-19.40183 28.55311 5 30 18.97307 1.125 40-45 0-45-45 0-40.13069 73.83891 9.86931 73.83891C464.79123 563.83891 535 555 550 505c55 130 150.18754 80.35484 150 45-.14709-27.72951-35-30-40-15-6.83371 20.50114 10 30 25 15M560.45117 969.54883 570 960l20 20 20-20 20 20 20-20 20 20 20-20 20 20 20-20 2.23633 2.23633M589.45224 702.39082a42.5 42.5 0 0 1 4.37533 3.91802 42.5 42.5 0 0 1-.84539 60.09813 42.5 42.5 0 0 1-60.09813-.84539 42.5 42.5 0 0 1-3.61432-4.24155m181.58889-177.80318a42.5 42.5 0 0 1 4.85601 4.28651 42.5 42.5 0 0 1-.84539 60.09814 42.5 42.5 0 0 1-60.09814-.8454 42.5 42.5 0 0 1-3.97397-4.73175m-.64067.62891a42.5 42.5 0 0 1 4.61464 4.10284 42.5 42.5 0 0 1-.8454 60.09813 42.5 42.5 0 0 1-60.09813-.84539 42.5 42.5 0 0 1-3.79547-4.48662m-61.28047 60.01174a42.5 42.5 0 0 1 4.13242 3.72762 42.5 42.5 0 0 1 .1623 59.08489m-.019.08224a42.5 42.5 0 0 1 59.10944 1.77639 42.5 42.5 0 0 1 3.52328 4.11975m.49282-.48431a42.5 42.5 0 0 1-4.0161-3.63544 42.5 42.5 0 0 1 .84539-60.09813 42.5 42.5 0 0 1 60.09814.84539 42.5 42.5 0 0 1 3.33863 3.8755m97.25438-171.11553a42.5 42.5 0 0 1-37.9587-12.20897 42.5 42.5 0 0 1-4.15145-4.9792m6.0059 128.43089a42.5 42.5 0 0 1-3.54524-3.25542 42.5 42.5 0 0 1 .8454-60.09813 42.5 42.5 0 0 1 32.0544-11.95882m-90.0632 134.75605a42.5 42.5 0 0 1-3.78012-3.44637 42.5 42.5 0 0 1 .84538-60.09813 42.5 42.5 0 0 1 60.09814.8454 42.5 42.5 0 0 1 3.15359 3.63433M696.1374 562.94883l25.11694-24.59371m-269.50953 48.20149c16.87385-1.72874 33.52698-4.65849 49.25128-9.48825 16.60812-5.10123 32.80257-13.11952 46.0586-24.48828 19.63253 29.79811 43.03975 48.0653 66.57372 56.45695m335.51141-85.78035C997.84652 539.14347 1045.3315 530.42901 1090 465c6.6704 33.08717 26.021 58.93755 45 85 19.9051-29.88632 33.3264-59.8848 40-90 28.1391 54.98796 76.5769 70.79056 124.9661 86.68696m.0491 316.8691c-111.4607-98.06319-228.1267-225.08124-280.9008-338.45112M893.15105 717.06918A132.61426 176.47168 0 0 1 920 823.52832v0a132.61426 176.47168 0 0 1-64.02321 151.03348m2.61649 25.8627c15.35174-10.1241 29.05513-23.29637 40.55125-38.59442C926.445 925.50096 942.5 876.82759 942.5 823.52734c0-50.70083-14.52721-97.21332-39.442-132.89838m-25.46192 401.78394c37.78215-17.4841 69.76641-44.935 93.49767-76.5145C1011.4072 962.25282 1032.5 894.90068 1032.5 823.52734c0-71.37333-21.0938-138.72476-61.40625-192.36914-8.01115-10.66055-16.96281-20.85061-26.76051-30.34557m-21.70069 494.93857c26.85062-17.8534 49.97792-40.2554 68.44753-64.8332C1034.9148 972.58653 1057.5 899.82615 1057.5 823.52734c0-76.29902-22.5863-149.05858-66.41992-207.38867-10.07587-13.40811-21.53793-26.16868-34.23447-37.89648m43.78299 480.82221c3.6186-4.3047 7.0994-8.6844 10.4378-13.1269 47.3553-63.01634 71.4336-141.17785 71.4336-222.41016 0-81.23274-24.0795-159.3934-71.4336-222.4082-12.04721-16.03139-25.94815-31.2445-41.48801-45.06799M1163.1931 397.7265l-12.6013 56.8653c-3.547 16.00591-9.343 32.20362-17.3848 48.60937-8.7424-14.0624-15.6454-27.99474-18.6992-43.14258l-11.7207-58.1289-33.4336 48.97461c-18.0281 26.40704-34.9734 40.58885-50.7406 47.77039m242.3233 7.37549c-26.5128-11.62957-48.2781-27.34072-63.6803-57.43885l-26.6661-52.1074M985.5122 529.67672c52.7499-39.67638 73.6881-93.20088 97.756-145.36296m116.8509-49.47392a25.0025 25.0025 0 0 0-11.2988 2.79883c-35.5279 17.76393-52.1127 17.76393-87.6406 0a25.0025 25.0025 0 1 0-22.3594 44.72266c44.4721 22.23607 87.8873 22.23607 132.3594 0a25.0025 25.0025 0 0 0-11.0606-47.52149v0m2.1298 51.56216c25.8413 72.73848 56.5748 130.84231 97.7296 157.77179m.0311 743.44621c-63.4039 53.9722-136.2812 97.475-213.9043 136.4041m213.9467-247.52c-80.9602 69.1262-176.6312 124.3225-276.4484 177.0351m276.4312-217.0358c-83.086 75.7791-186.1036 135.4194-295.4278 193.0839M1092.0235 1030H1300m-139.9997-100.68575 39.6267 48.63106L1160 1017.5742m.0003-88.25995v0m90 15.46672-43.512-53.40011 33.8276-37.8891m-43.3193-41.57139-36.9965 41.44108M1232.4258 1030 1250 1012.4258m-120-271.12502V1030m30-255.99022V1030m58.4899-197.10758-51.4243 57.59997L1240 980l-50 50m60-167.66602V1030m20-149.6289V1030m-140.9062-339.99998L1300 690m-292.373 394.1602a15.0015 15.0015 0 0 0-15.09966 18.8339c9.71466 38.8587 9.68986 53.5165.32227 81.6192a15.0015 15.0015 0 1 0 28.45899 9.4863c10.6324-31.8974 10.6076-57.2395.3223-98.3808a15.0015 15.0015 0 0 0-14.0039-11.5586v0m11.1933 114.6601L1090 1270c3.7639-21.3506 4.8361-44.9333-20-90 29.4056-9.9196 53.1137-26.1698 70-50-16.6536-6.6592-39.9607-13.3258-70-20 22.6933-36.9744 25.1036-69.3407 20-100-21.1035 28.4186-40.8829 57.8391-74.3198 76.9273m285.041-48.9994c-44.5494 38.3479-106.667 94.5024-175.6814 109.4927m-133.30321-47.8427c-27.67003-1.4333-116.82512-7.3254-142.05837-7.3254-55 0-78.95834 27.7475-9.67822 27.7475m250-110-20.0703-14.9043c-18.9725 25.549-34.9739 48.4098-57.0313 64.5391-1.4064-.1776-2.7873-.3961-4.2714-.4551-2.6472-.1058-5.2337.064-7.8689.1826M900 1175c-40 0-60 5-80 5-30 0-40 25-10 25h82.85714M890 1145c-5 0-60 5-80 5s-45 25 0 30m75-60h-45c-40 0-75 25-35 30m188.05632 42.3146C973.31355 1198.8955 917.77899 1217.407 910 1220c-15 5-25 10-35.96535 16.1386C847.49638 1250.9953 840 1225 855 1215s25-10 25-10m144.3824-97.2799c.8321-.3631 1.6514-.7805 2.4535-1.2533 12.4592-7.1126 23.0261-15.4212 32.5039-24.2578-2.3985 5.1707-5.0978 10.4528-8.5156 16.0215l-16.5039 26.8906 30.7988 6.8437c12.6158 2.803 23.6823 5.5942 33.6817 8.3457-10.2327 7.6164-22.1079 13.6855-35.9922 18.3692l-25.5059 8.6055 12.9922 23.5742c3.1687 5.7497 5.7744 10.8839 8.0547 15.6699l-23.6191-23.6191c-2.5505-2.6177-5.5812-4.4805-8.8151-5.5867m74.7324-874.55001 3.0013 36.01552M1200 299.83984v35.00782M1085 105c0 85 40.192 215-25 215-35 0-38.3332-48.86042-13.4319-46.64204C1065 275 1064.5636 294.98569 1055 300c25.7974-21.41547 27.5244-52.3959 0-95 19.9923-14.00382 5-75 5-95 0-45 60-35.495098 60-10 0 25-30 25-35 5v0m6.9047 191.16158C1102.4904 304.94112 1123.7452 320 1145 320c30 0 75-25 75-50 0-11.75331-4.4205-23.50662-9.105-32.66216m-121.9391-73.74612C1092.1244 161.51973 1097.0425 160 1105 160c25 0 35 15 40 15 18.2286 0 23.9515 24.45093-5 25-19.9964.37924-30-20-30-20 6.1561 14.15894 16.6416 29.11405 5 40 35.2294 6.80071 45.4438 29.92322 45 60m-40.4662-117.8232c.078-3.88098.2308-7.93978.4662-12.1768m28.5107 49.16038c-5.5096 37.79364-22.8479 36.23579-27.7409-6.06663m-20.5317-32.74891C1101.5383 148.26426 1108.159 141.20535 1120 135c21.1103-11.06305 28.913 21.39112 29.9332 40.7701m-9.9148-35.6469c39.5497-34.24645 38.251 71.70308 34.9816 79.8768-8.1506 20.37666-26.2663 27.46666-29.9806-5.80382m22.0054-71.09657c23.9133-20.9696 40.376 17.03216 35.5121 51.07937-6.2478 43.73477-27.3445 61.84159-30.05 31.06293m23.1938-77.20453c21.8865-13.73792 37.1041 22.05772 31.5556 54.05076-7.8833 45.45614-31.2807 48.41282-27.6377 6.77485m28.504-23.72768c.6307-.09016 1.2639-.13531 1.8974-.13531 11.0457 0 20 13.43146 20 30v0c0 16.56854-8.9543 30-20 30-5.8792-.00001-11.4606-3.88024-15.2607-10.60932M1295 215a22.5 25 0 0 1-22.5 25 22.5 25 0 0 1-22.5-25 22.5 25 0 0 1 22.5-25 22.5 25 0 0 1 22.5 25v0m-341.74217-44.99999L1065.2617 170m-151.24799 85.00001L1074.7871 255M1150 235c14.4191 7.86123 26.4574 17.77259 30 35M917.7717 854.9396a29.072189 30 0 0 1-1.8439.0604 29.072189 30 0 0 1-29.07219-30 29.072189 30 0 0 1 29.07219-30 29.072189 30 0 0 1 2.26128.0909m-.27908-1.83809a29.072189 30 0 0 1-6.62666.78973 29.072189 30 0 0 1-29.07219-30 29.072189 30 0 0 1 19.99105-28.49886m-1.55065 179.35786a29.072189 30 0 0 1-19.60147-28.36352 29.072189 30 0 0 1 29.07218-30 29.072189 30 0 0 1 7.36141.97767M867.28141 964.1864a29.072189 30 0 0 1-11.19485-23.65747 29.072189 30 0 0 1 29.07219-30 29.072189 30 0 0 1 15.4063 4.55881m-43.94191 56.35097c.48158.46431.97527.91811 1.48084 1.36089m15.60587-190.67822c2.64496 5.68487 6.4928 10.70538 11.21203 14.69307-6.57405 7.5538-10.56641 17.46603-10.56641 28.18555 0 10.62015 3.92123 20.44561 10.38672 27.97266-9.85559 7.83637-16.19141 20.05981-16.19141 33.56445 0 4.8791.82528 9.63047 2.35938 14.08594-5.85817 2.20839-11.09526 5.73279-15.37864 10.20325m41.26556-186.62031c-2.59266.98441-5.04428 2.21475-7.33436 3.65863M735 485c0-35-35-35-35 5s55 20 55-15c0-50-75-40-75 10 0 64.1396 114.10509 78.02135 179.10509 73.02135 64.63788-4.97214 129.54008-48.49028 130.07389-113.31692.74612-90.60817-65.25452-127.77962-81.05607-212.61188M707.26694 530.17441C755.95166 531.73109 775 510 775.4844 463.58785 776.26271 389.01524 710 380 715.52767 213.41443m5.69658 324.97016c.0318.001.0635.002.0952.003m217.01454-7.11927c22.32609-20.78809 35.4704-55.56393 35.72567-86.56389.75197-91.31996-65.077-128.36034-79.99556-214.62001m34.42896 307.05172c20.32423-22.52711 30.20131-62.56093 30.44728-92.43171.75783-92.03179-64.86961-128.93448-78.90691-216.64617m29.50754 318.05439c22.98456-22.01909 34.01864-69.66249 34.28005-101.40822.76334-92.70043-64.571-129.4678-77.7725-218.56604m27.90356 325.49042c23.37325-22.23107 34.48598-74.90915 34.74961-106.92438.76798-93.26438-64.09732-129.91308-76.57236-220.19797m28.43079 330.4455c22.25893-23.70418 32.76475-78.97641 33.02225-110.24753.77237-93.79808-63.55619-130.33067-75.34339-221.7532m24.5001 334.77446c24.18557-21.86749 35.45583-80.45754 35.72397-113.02126.77662-94.31326-62.965-130.73025-74.09247-223.2646m22.10228 337.38687c25.05428-20.93468 36.59809-80.99552 36.87087-114.12227.78068-94.80651-62.32004-131.10958-72.82024-224.72104m20.73293 339.02283c25.20044-20.76876 36.69443-81.07984 36.96799-114.30179.78377-95.18198-61.49699-131.39621-71.49855-225.83597m19.97565 339.76549c24.88558-21.10825 36.13163-80.90386 36.40358-113.92952.78687-95.558-60.65572-131.68142-70.16931-226.95796m19.77547 340.00278c24.17215-21.84894 35.00628-80.46939 35.27452-113.04482.78996-95.93411-59.79549-131.96486-68.83264-228.08572m20.0882 339.69155c23.2208-22.88574 36.26456-79.82949 33.62512-111.60583C815 350 760 325 755.37781 215.4875m13.21003 337.53563c27.37601-21.00547 42.46981-72.12247 39.15928-108.3187C800 360 745 355 741.64319 214.75504m5.53642 333.20387c34.29719-15.47414 48.46785-62.33588 47.09023-91.76023C790 365 730 375 727.91429 214.05148m25.91868 269.67864c3.03047-18.43022 4.7058-21.39577 3.97566-32.60801-4.36974-67.10223-66.31117-43.67368-57.34926-238.48604M685 550c-25 35-75.39854 8.40829-100-45m75.34537 46.46158C638.38051 543.6371 616.83106 525.68451 605 500m116.22425 38.38459c-5.4577 7.64077-12.89906 12.66147-21.45385 15.28624m-37.92986-21.84261C645.2183 525.06584 629.78034 511.23253 620 490m86.50567 39.95103C680.34809 530.77903 650.53604 513.72782 635 480m51.41332 29.31696C672.03153 502.22938 658.86755 489.25092 650 470m30.2524 12.30784c-7.06958-6.29615-13.18757-14.3702-17.78935-24.36039m23.40731 5.25087C681.77295 457.80339 678.10193 451.73409 675 445m25.97303 3.33323C696.83426 442.90464 693.12781 436.79029 690 430m29.67162 12.51501C714.02815 436.25285 709.03305 428.75552 705 420M385 535c48.67715 7.959 64.36053-29.0356 64.21198-70.30567C449.05994 422.45662 425 380 435 340m-42.20033 222.91461c48.67715 7.959 69.28664-55.30818 69.13809-96.57825C461.78572 424.09865 435 400 435 340m4.6486 222.42238c23.01495-15.52827 34.29849-51.96856 36.04881-81.28622m-14.29622 79.03328C479.42591 542.50363 488.45017 510.9596 490 485m-5.70747 70.81104C497.09637 537.65408 503.69557 511.84908 505 490m1.53159 58.49816C514.62921 532.01469 518.96887 512.27138 520 495m8.43737 40.99903C532.1716 524.02825 534.31527 511.46911 535 500M435 340s5.98267 80.01932 5 105c-1.55101 39.42862-75 77.64888-75 0 0-50 60-45 60-5s-45 30-45 5 35-20 35 0m9.53951-96.80558c-1.89982 17.87894-8.92504 27.0478-7.48696 40.23744C417.889 396.10359 425 415 425 440m22.58451-222.50706C443.34264 230.94153 435 258.81341 435 270c0 15 5 25 5 50 0 40-70 55-70 0 0-45 60-55 60-15s-40 30-40 10 25-20 25-5m21.83949-90.78402c-5.71115 10.94095-12.32389 26.06264-12.32389 37.42606C424.5156 277.25756 430 305 430 305m5.41051-40.41051S450 245 470 245s30 10 40 10c5 0 15-10 15-10v10c-5 0-9.81482 4.88863-15 5-5 0-30-15-35-15m195 15s-35-20-45-20c-15 0-35 10-45 10s-25-5-25-5v5c8.4466 0 20.17976 5.02388 25 5 4.9555-.0246 30-15 45-15m-100 15s10 25 10 30-20 50-20 60-10 35-10 40 15 15 20 15 20-10 30-15c4.47214-2.23607 10 10-30 15m40-35c25 0 28.8924 24.48008 11.23153 30.89491-6.71458 2.43889-16.7233-1.56645-18.1328-9.11094M505 425l-10 20 10-10v-10 0m100 0 5 20-10-15 5-5v0m-105 15 4.41529-5.59421C505.39263 433.16749 520 430 530 420c0 0 0 10 13.28407 10 10 0 16.71593-10 16.71593-10s10 10 20 10l25 5-5-5c-28.36681 6.71226-90-2.67009-100 10v0m30 10c16.91189 17.2251 30 15 45 0M440 295c20 0 30.34532-16.23819 40.33662-15.82102C500 280 505 295 515 295c-5 0-15 15-40 15-15 0-15-15-35-15v0m205 0c-20 0-30.34532-16.23819-40.33662-15.82102C585 280 580 295 570 295c5 0 15 15 40 15 15 0 15-15 35-15v0m375-110-25 30 30 25m-49.0918-25H995m-35 25 35-55v55"/></symbol><symbol id="e" preserveAspectRatio="none" viewBox="0 0 1300 2000"><path d="M631.5332 181.01562c-65.07814-.1396-133.43493 2.91465-206.78711 9.69727l11.31641 29.0957c186.86291-16.6342 340.04057-8.66159 490.85156 14.75586l10.64258-28.69922c-98.20321-15.51149-197.55986-24.61692-306.02344-24.84961Zm441.2344 226.16993-8.416 18.14062c49.7386 23.01503 104.1555 24.04066 154.3105 3.07617l-7.5957-18.48828c-45.3166 19.08429-93.2297 18.1744-138.2988-2.72851zM550 505c-11.90655 39.6885-58.59783 53.44299-109.67969 57.0918 3.89017 7.73124 7.57447 15.85005 11.3086 24.24218 16.98908-1.50582 33.64288-4.43586 49.36718-9.26562 16.60812-5.10123 32.80257-13.11952 46.0586-24.48828 19.63253 29.79811 43.03896 48.06521 66.50781 56.37695L502.24609 717.45898c2.78389 8.36228 5.5694 17.04329 8.42774 26.35352l168.28711-164.00195C647.59519 599.01533 588.7983 596.70507 550 505Zm419.57812 51.05078-12.73242 22.19141c12.69654 11.7278 24.15851 24.48837 34.23438 37.89648C1034.9137 674.46876 1057.5 747.22832 1057.5 823.52734c0 76.29881-22.5852 149.05913-66.41992 207.39066-18.46961 24.5778-41.5974 46.9798-67.84375 64.8164 28.15303 1.6365 55.37004 3.0102 68.64062 3.5586.19908-8.4786 7.04818-15.4806 15.75005-15.1328 3.4961.1399 6.7201 1.4821 8.6406 3.2128 32.8487-19.5332 52.6289-48.9544 73.7324-77.373l-20.0703-14.9043c-18.9725 25.549-34.9739 48.4098-57.0313 64.5391-1.4064-.1776-2.7873-.3961-4.2714-.4551-2.6472-.1058-5.234.063-7.8692.1816 3.4891-4.6026 6.9702-8.9813 10.3086-13.4238 47.3553-63.01634 71.4336-141.17785 71.4336-222.41016 0-81.23274-24.0795-159.3934-71.4336-222.4082-12.04719-16.03139-25.94842-31.24487-41.48828-45.06836zM1047.1113 577l3.7266 6H1300v-6zm12.4727 20 4.0547 6H1300v-6zm12.5 18.5 6.2969 9H1300v-9zm16.8281 23.5 9.0313 12H1300v-12zm17.9297 23.5 12.0156 15H1300v-15zm-372.66407 67.4707L551.0625 909.27148l5.04492 30.05079 174.94531-171.30079ZM1250 862.33398V1030h20V880.37109ZM570 960l-9.54883 9.54883L564.87305 1005h171.26172l-3.89844-42.76367L730 960l-20 20-20-20-20 20-20-20-20 20-20-20-20 20zm521.4609 89-1.7812 12h184.168l13.9941-12zm-3.914 21.5-2.9531 9h166.7773l10.9629-9zm-5.8516 16.5-2.6387 6h154.5332l7.9082-6zM1300 1136.5098c-83.0825 75.7708-186.0769 135.4181-295.3926 193.0781l18.9961 23.9512c99.8013-52.7042 195.4445-107.9031 276.3965-177.0137Z"/></symbol><symbol id="d" preserveAspectRatio="none" viewBox="0 0 1300 2000"><path fill="#44F" d="M603.15234 277.12695a10 16.642036 0 0 0-10 16.64063 10 16.642036 0 0 0 10 16.64258 10 16.642036 0 0 0 10-16.64258 10 16.642036 0 0 0-10-16.64063zM480 278.35742A10 16.642036 0 0 0 470 295a10 16.642036 0 0 0 10 16.64258A10 16.642036 0 0 0 490 295a10 16.642036 0 0 0-10-16.64258Zm720.082 21.5625C1184.4047 311.75502 1162.2285 320 1145 320c-16.2989 0-32.5974-8.85609-44.2188-17.08594l1.6329 35.29883c34.2932 17.18876 50.8783 17.18971 86.4062-.57422 3.4936-1.80888 7.3638-2.76782 11.2383-2.79492zM530 420c-10 10-24.60664 13.16795-25.58398 14.40625L500 440c8.8269-11.18376 57.87042-5.19102 88.76758-8.24609L580 430c-10 0-20-10-20-10s-6.7168 10-16.7168 10C529.99913 430 530 420 530 420Zm58.76758 11.75391L605 435l-5-5c-3.32772.78742-7.12616 1.34788-11.23242 1.75391zM1175 460c-6.6736 30.1152-20.0949 60.11368-40 90-18.979-26.06245-38.3296-51.91283-45-85-22.9019 33.54595-46.5442 52.18259-70.7988 60.17188 24.8219 53.37408 63.8381 109.79063 109.8554 164.80859l170.9434.01758V546.70117c-48.4008-15.90028-96.8541-31.69995-125-86.70117Zm-188.60156 68.13867c-5.77803 9.18159-11.34846 18.31224-16.76758 27.65235 15.48673 14.08394 29.38835 29.29673 41.43554 45.32812 47.3541 63.0148 71.4336 141.17546 71.4336 222.4082 0 81.23231-24.0783 159.39382-71.4336 222.41016-3.3384 4.4425-6.8191 8.8217-10.373 13.2754 2.7.03 5.2864-.1387 7.9336-.033 1.4841.059 2.865.2775 4.2714.4551 22.0574-16.1293 38.0588-38.9901 57.0313-64.5391L1090 1010c1.0497 6.3058 1.7822 12.6843 2.0547 19.5801l37.8066.4199.6602-289.31641c-60.5068-69.2216-113.1957-142.19112-144.12306-212.54492Zm-71.09375 26.61524a5 5 0 0 0-4.36328 2.8789 5 5 0 0 0 2.41015 6.64649A5 5 0 0 0 920 561.86914a5 5 0 0 0-2.41016-6.64648 5 5 0 0 0-2.28515-.46875zm-118.51953 8.66992a5 5 0 0 0-4.96485 4.10351 5 5 0 0 0 4.02344 5.81446 5 5 0 0 0 5.81445-4.02344 5 5 0 0 0-4.02343-5.81445 5 5 0 0 0-.84961-.0801zm96.45898 3.08984a5 5 0 0 0-4.36328 2.87891 5 5 0 0 0 2.41016 6.64648 5 5 0 0 0 6.64843-2.41015 5 5 0 0 0-2.41015-6.64649 5 5 0 0 0-2.28516-.46875zm-66.94336 2.28711a5 5 0 0 0-4.9668 4.10352 5 5 0 0 0 4.02344 5.81445 5 5 0 0 0 5.81446-4.02148 5 5 0 0 0-4.02344-5.81641 5 5 0 0 0-.84766-.0801zm-15.70117 7.23047-20.5918 57.23437 12.52539-12.96484 1.33399 20.57422 6.21484-19.95703 9.43945 17.72656zm109.81836 3.19336a5 5 0 0 0-4.36328 2.87891 5 5 0 0 0 2.41015 6.64843 5 5 0 0 0 6.64844-2.41015 5 5 0 0 0-2.41016-6.64844 5 5 0 0 0-2.28515-.46875zm-15.53906 3.17187-34.48243 50.10938 15.41407-9.34961-3.94532 20.23437 11.08985-17.71679 4.61523 19.54297zm-167.75782 27.42383c.79969 5.53296.72062 11.16553-.23437 16.67383 3.90576-.56448 7.86099-.69119 11.78711-.38086l2.92969-15.78711c-4.82328.49326-9.69994.32333-14.48243-.50586zm92.875 51.41016a5 5 0 0 0-4.70703 3.80469 5 5 0 0 0 3.66211 6.04882A5 5 0 0 0 835 667.42188a5 5 0 0 0-3.66211-6.04883 5 5 0 0 0-1.3418-.14258zm-153.81836 7.84375c.79969 5.53295.72061 11.16552-.23437 16.67383 5.53299-.79967 11.16557-.72064 16.67383.23437-.79969-5.53295-.72061-11.16552.23437-16.67383-5.53299.79967-11.16557.72065-16.67383-.23437zm134.47852 7.99805a5 5 0 0 0-4.70703 3.80468 5 5 0 0 0 3.66211 6.04883 5 5 0 0 0 6.04883-3.66211 5 5 0 0 0-3.66211-6.04883 5 5 0 0 0-1.3418-.14257zm29.13281 7.16015a5 5 0 0 0-4.70703 3.80469 5 5 0 0 0 3.66211 6.04883 5 5 0 0 0 6.04883-3.66211 5 5 0 0 0-3.66211-6.04883 5 5 0 0 0-1.3418-.14258zm-15.61133 6.27344-24.0332 55.87891 13.29102-12.17969.082 20.61523 7.41601-19.54101 8.34375 18.26562zm-208.94335 37.82031c.7997 5.53294.72061 11.16552-.23438 16.67383 5.53299-.79967 11.16557-.72064 16.67383.23438-.7997-5.53297-.72062-11.16553.23437-16.67383-5.53299.79966-11.16555.72063-16.67382-.23438zm147.96679 51.85547a5 5 0 0 0-5.20312 4.40234 5 5 0 0 0 4.37109 5.55664 5 5 0 0 0 5.55664-4.37304 5 5 0 0 0-4.37109-5.55664 5 5 0 0 0-.35352-.0293zm110.39649 2.28906c-10.96088 44.13713-16.84412 86.61137-18.25977 127.84766l.19336.50781c4.28338-4.47046 9.52074-7.99473 15.37891-10.20312-1.5341-4.45547-2.35938-9.20684-2.35938-14.08594 0-13.50464 6.33582-25.72808 16.19141-33.56445-6.46549-7.52705-10.38672-17.35251-10.38672-27.97266 0-10.71952 3.99236-20.63175 10.56641-28.18555-4.71924-3.98769-8.56777-9.00868-11.32422-14.34375zm-319.30664 5.10938c.7997 5.53295.7206 11.16357-.23438 16.67187 5.53299-.79966 11.16557-.72063 16.67383.23438-.7997-5.53294-.72062-11.16357.23437-16.67188-5.53299.79967-11.16556.72064-16.67382-.23437zm275.48437 2.72461a5 5 0 0 0-4.70508 4.40234 5 5 0 0 0 4.37305 5.55664A5 5 0 0 0 835 795.89258a5 5 0 0 0-4.37305-5.5586 5 5 0 0 0-.35156-.0293 5 5 0 0 0-.5 0zm-84.33789 7.95898a5 5 0 0 0-4.70508 4.40235 5 5 0 0 0 4.37305 5.55664 5 5 0 0 0 5.55664-4.37305 5 5 0 0 0-4.37109-5.55664 5 5 0 0 0-.35352-.0293 5 5 0 0 0-.5 0zm30.14453 3.54883a5 5 0 0 0-.35547.006 5 5 0 0 0-4.70508 4.40234 5 5 0 0 0 4.37305 5.55664 5 5 0 0 0 5.55664-4.37304 5 5 0 0 0-4.37109-5.55664 5 5 0 0 0-.49805-.0352zm36.92969 6.57422a5 5 0 0 0-4.70508 4.40234 5 5 0 0 0 4.37305 5.55664 5 5 0 0 0 5.55664-4.37109 5 5 0 0 0-4.37305-5.55859 5 5 0 0 0-.35156-.0293 5 5 0 0 0-.5 0zM760 810l-17.03906 58.39258 11.70703-13.70899 2.5957 20.45118 4.97656-20.30079L772.75 871.94727zm82.6543 1.93555a5 5 0 0 0-.35352.006 5 5 0 0 0-4.70508 4.40234 5 5 0 0 0 4.3711 5.55664 5 5 0 0 0 5.55859-4.37305 5 5 0 0 0-4.37305-5.55664 5 5 0 0 0-.49804-.0351zm-15.58008 8.1875-17.03906 58.39257 11.70703-13.70898 2.5957 20.45117 4.97656-20.30078 10.50977 17.11328zM790 905a5 5 0 0 0-5 5 5 5 0 0 0 5 5 5 5 0 0 0 5-5 5 5 0 0 0-5-5zm-15 20a5 5 0 0 0-5 5 5 5 0 0 0 5 5 5 5 0 0 0 5-5 5 5 0 0 0-5-5zm30 0a5 5 0 0 0-5 5 5 5 0 0 0 5 5 5 5 0 0 0 5-5 5 5 0 0 0-5-5zm-15 10-10 60 10-15 5 20 2.53711-20.74805L810 995Zm41.16797 85.1211a5 5 0 0 0-.5 0 5 5 0 0 0-4.70313 5.2812 5 5 0 0 0 5.28125 4.7032 5 5 0 0 0 4.70313-5.2813 5 5 0 0 0-4.78125-4.707zm-70.5 2.9922a5 5 0 0 0-.99609.074 5 5 0 0 0-4.05469 5.793 5 5 0 0 0 5.79297 4.0547 5 5 0 0 0 4.05468-5.793 5 5 0 0 0-4.79687-4.1289zM1300 1038.5508c-44.4976 38.3296-106.2745 93.9322-174.5781 108.5293-14.7422 14.6101-33.4991 25.5245-55.4219 32.9199 24.8361 45.0667 23.7639 68.6494 20 90l-71.1738-71.1758c-3.7859 4.8702-10.371 7.0815-16.5742 5.0137-5.28913-1.7629-8.93063-6.1824-9.96098-11.2695-13.78161 4.5938-43.37345 14.4579-63.36133 21.0078 21.40705 40.0217 46.899 78.8075 75.71091 116.1816 109.285-57.8183 212.2772-117.4767 295.3594-193.248zm-307.70898 154.0176c.18084-.06.59036-.1955.76562-.2539l-.91602-.5977c.0409.2862.0932.5691.1504.8516zm-144.99219-153.3477a5 5 0 0 0-.5 0 5 5 0 0 0-4.70313 5.2813 5 5 0 0 0 5.2793 4.7031 5 5 0 0 0 4.70312-5.2813 5 5 0 0 0-4.77929-4.707zm-68.38281.9805a5 5 0 0 0-.9961.074 5 5 0 0 0-4.05469 5.793 5 5 0 0 0 5.79297 4.0546 5 5 0 0 0 4.05469-5.7929 5 5 0 0 0-4.79687-4.1289zm38.43164.7539a5 5 0 0 0-.5 0 5 5 0 0 0-4.70313 5.2793 5 5 0 0 0 5.28125 4.7031 5 5 0 0 0 4.70313-5.2812 5 5 0 0 0-4.78125-4.7051zm-67.97657 4.4609a5 5 0 0 0-.99414.074 5 5 0 0 0-4.05468 5.793 5 5 0 0 0 5.79296 4.0547 5 5 0 0 0 4.05469-5.793 5 5 0 0 0-4.79883-4.1289zm83.0293 4.6582-4.72656 43.8633 21.55664-1.6719zm-67.51367 2.6563.58008 60.8242 7.24023-16.5098 8.40039 18.8281L780 1095l15.00977 13.3418zm153.29883 174.5254L915 1245l-12.5625-16.3457 5.94922 20.0371-17.71094-9.4687 42.27539 47.041zm-86.875 19.8261-4.44922 17.4688L815.5 1247.3477l4.5 20.4121-16.98633-10.7129 38.79688 49.9492zm117.33789 32.7832a5 5 0 0 0-1.94336.416 5 5 0 0 0-2.58985 6.5801 5 5 0 0 0 6.58008 2.5899 5 5 0 0 0 2.58985-6.5801 5 5 0 0 0-4.63672-3.0059zm-27.50977 11.9688a5 5 0 0 0-1.94336.414 5 5 0 0 0-2.58984 6.5801 5 5 0 0 0 6.58008 2.5899 5 5 0 0 0 2.58984-6.5801 5 5 0 0 0-4.63672-3.0039zm-63.35937 9.8965a5 5 0 0 0-.35352 0 5 5 0 0 0-1.4668.2793 5 5 0 0 0-3.05468 6.377 5 5 0 0 0 6.37695 3.0547 5 5 0 0 0 3.05469-6.377 5 5 0 0 0-4.55664-3.3359zm85.09375 2.459a5 5 0 0 0-1.94336.414 5 5 0 0 0-2.5918 6.5801 5 5 0 0 0 6.58008 2.5898 5 5 0 0 0 2.58984-6.5781 5 5 0 0 0-4.63476-3.0058zm-113.39063 7.5078a5 5 0 0 0-.35156 0 5 5 0 0 0-1.46875.2793 5 5 0 0 0-3.05469 6.377 5 5 0 0 0 6.37696 3.0547 5 5 0 0 0 3.05468-6.377 5 5 0 0 0-4.55664-3.3359zm82.39844.373L910 1330l-13.72266-15.3848 7.39649 19.5489-18.35352-8.1485 45.59766 43.8282zm-61.60547 13.5078a5 5 0 0 0-.35351 0 5 5 0 0 0-1.4668.2793 5 5 0 0 0-3.05469 6.3769 5 5 0 0 0 6.37695 3.0547 5 5 0 0 0 3.05469-6.3769 5 5 0 0 0-4.55664-3.336zm96.33008 36.7207a5 5 0 0 0-2.4082.5723 5 5 0 0 0-2.10157 6.75 5 5 0 0 0 6.75 2.1035 5 5 0 0 0 2.10352-6.75 5 5 0 0 0-4.34375-2.6758zm-26.5625 13.9453a5 5 0 0 0-2.40625.5723 5 5 0 0 0-2.10352 6.75 5 5 0 0 0 6.75196 2.1035 5 5 0 0 0 2.10156-6.7519 5 5 0 0 0-4.34375-2.6739zm83.16403 6.6621-1.8808 17.9297-13.72464-15.3847L995 1405l-18.35352-8.1484 45.59572 43.8261zm-60.58591 4.0723a5 5 0 0 0-2.4082.5723 5 5 0 0 0-2.10156 6.7519 5 5 0 0 0 6.75 2.1035 5 5 0 0 0 2.10351-6.7519 5 5 0 0 0-4.34375-2.6758zm-28.38281 15.4981L910 1420l-11.56641-17.0645 4.74414 20.3555-17.11328-10.5078 18.98047 23.8379 16.61133 5.3711zm123.69332 30.6562a5 5 0 0 0-2.4082.5723 5 5 0 0 0-2.1015 6.7519 5 5 0 0 0 6.75 2.1035 5 5 0 0 0 2.1035-6.7519 5 5 0 0 0-4.3438-2.6758zm-26.5625 13.9453a5 5 0 0 0-2.4062.5723 5 5 0 0 0-2.1035 6.7519 5 5 0 0 0 6.75 2.1016 5 5 0 0 0 2.1035-6.75 5 5 0 0 0-4.3438-2.6758zm-70.35738 9.7305a5 5 0 0 0-1.46484.2988 5 5 0 0 0-2.59571 2.166l2.54297 7.2051a5 5 0 0 0 3.48828.02 5 5 0 0 0 2.97852-6.4121 5 5 0 0 0-4.44922-3.2773 5 5 0 0 0-.5 0zm92.93558 1.0059a5 5 0 0 0-2.4082.5722 5 5 0 0 0-2.1016 6.75 5 5 0 0 0 6.75 2.1035 5 5 0 0 0 2.1035-6.75 5 5 0 0 0-4.3437-2.6757z"/></symbol><symbol id="c" preserveAspectRatio="none" viewBox="0 0 1300 2000"><path fill="red" d="M667.12891 60.605469c-7.78249 7.603273-17.32653 14.042451-28.16016 18.55664-4.97232 22.292331-14.54213 41.391461-27.14844 56.947271-57.8295.42638-118.19668 3.30101-181.54687 8.97265-6.1816-6.93567-11.53984-14.35143-15.53906-21.90039-8.06825-15.22957-11.81638-28.961779-15.19336-40.677734-14.95761-3.779455-28.37429-11.300311-40.6543-20.222656 29.0742 48.75405 48.96243 87.64085 65.59961 127.74414 195.86552-17.39853 355.94459-8.97747 513.14844 15.52149 14.90568-38.01599 34.87485-77.29598 79.12893-139.660161-17.86745 9.100056-40.33622 16.829551-70.17972 22.222656-2.83937 26.208065-11.87661 48.573015-27.48632 65.251955-1.2792 1.36682-2.5891 2.6841-3.92774 3.95508L711.2168 143.05469l203.13281 13.80078c-65.99795-9.49977-133.03887-16.08321-202.99023-18.9707-9.36141-15.96866-15.92053-34.72074-18.25586-55.769536-10.27848-5.665544-19.06511-13.10526-25.97461-21.509765ZM1090 345a15 15 0 0 0-15 15 15 15 0 0 0 15 15 15 15 0 0 0 15-15 15 15 0 0 0-15-15zm110 0a15 15 0 0 0-15 15 15 15 0 0 0 15 15 15 15 0 0 0 15-15 15 15 0 0 0-15-15zm-55 15a15 15 0 0 0-15 15 15 15 0 0 0 15 15 15 15 0 0 0 15-15 15 15 0 0 0-15-15zM747 548l-17.08008 16.85742c.84953 1.97094 2.08857 3.84284 3.71875 5.51953 6.94381 7.14193 17.60416 7.29146 24.7461.34766.77283-.75139 1.46525-1.54768 2.07421-2.37695l3.39844-16.22852zm-199.94531 4.58008c-13.25603 11.36876-29.45048 19.38705-46.0586 24.48828-15.7243 4.82976-32.37791 7.76023-49.04492 9.99414 18.80353 42.60764 35.62496 86.04637 50.39063 130.65625l111.37304-108.91016c-23.62013-8.16362-47.02762-26.4304-66.66015-56.22851zM502.3418 717.71875l-.0156.0156.1875.49609c-.0565-.17095-.1153-.3408-.17187-.51172zm190.19336-116.28711-23.43946 22.94727c.84473 1.87231 2.04365 3.64963 3.59961 5.25 6.9438 7.14193 17.60416 7.29144 24.7461.34765 7.14193-6.94379 7.2934-17.60414.34961-24.74609-1.58628-1.63154-3.3679-2.89829-5.25586-3.79883zm50.35937 59.36328c-3.79979.36904-7.52441 2.04327-10.59765 5.03125-7.14194 6.94379-7.29146 17.60416-.34766 24.7461.74094.76208 2.53431 1.95048 4.07422 2.91601zm-111.02148.0273-23.58985 23.09179c.83612 1.7684 1.99138 3.44727 3.46875 4.9668 6.9438 7.14194 17.60415 7.2934 24.7461.34961 7.14193-6.9438 7.29144-17.60612.34765-24.74805-1.50753-1.55055-3.18879-2.76977-4.97265-3.66015zM1300 690.01172l-170.8359.10156C1180.8134 751.875 1241.1339 811.7235 1300 863.51562ZM683.80078 719.9707c-4.42586-.0622-8.87629 1.63553-12.44726 5.10742-7.14193 6.94381-7.29147 17.60416-.34766 24.7461 1.23249 1.26766 2.58159 2.31605 4.00781 3.14258l24.05469-23.55078c-.77745-1.40987-1.76657-2.75181-2.96875-3.98829-3.4719-3.57097-7.87297-5.39477-12.29883-5.45703zm-112.59375.2461-23.73047 23.23242c.82383 1.66471 1.93357 3.24718 3.33203 4.68555 6.94379 7.14194 17.60417 7.29145 24.7461.34765 7.14195-6.94379 7.29144-17.60416.34765-24.74609-1.42905-1.46983-3.01448-2.64287-4.69531-3.51953zm331.20703 15.65625c-12.14029 3.71834-20.20312 15.21207-20.20312 28.16992 0 16.56854 13.01613 30 29.07226 30 2.23093 0 4.45388-.26541 6.76563.12891-.61279.85842-1.36648.82812-2.1211.82812-16.05613 0-29.07226 13.43146-29.07226 30s13.01613 30 29.07226 30c.6151 0 1.22937-.0193 1.69922 1.22852-2.54727.63894-5.0197.30859-7.5039.30859-16.05612.00001-29.07227 13.43146-29.07227 30 0 10.74079 5.55419 20.47126 14.24024 25.84961-3.23597-1.21192-6.6616-1.85742-10.13282-1.85742-16.05613 0-29.07226 13.43146-29.07226 30 0 9.24451 4.12992 17.97237 11.52148 23.42382C900.53165 930.5638 920 878.84881 920 823.52734c0-30.75132-6.03589-60.82896-17.58594-87.65429zm-171.39453 32.17968L571.20117 924.54297l158.57617.33984c-2.72252-51.56897-2.41216-103.85518 1.24219-156.83008zm429.22267 5.03711L1160 851.93945l36.9473-41.23633c-12.348-13.43061-24.5162-25.88476-36.7051-37.61328zm-537.38478 6.13282c-4.42585-.0623-8.87629 1.63747-12.44726 5.10937-7.14193 6.94379-7.2934 17.60417-.34961 24.74609 1.31148 1.3489 2.75725 2.4475 4.28515 3.29688l23.92774-23.43164c-.79865-1.51089-1.83676-2.9467-3.11719-4.26367-3.4719-3.57097-7.87297-5.39478-12.29883-5.45703zm-60.94336 59.2539c-4.42585-.0623-8.87629 1.63553-12.44726 5.10742-7.14194 6.9438-7.2934 17.60417-.34961 24.7461 1.38938 1.42902 2.92761 2.57891 4.55664 3.44726l23.80078-23.30273c-.8163-1.61297-1.90281-3.14529-3.26172-4.54297-3.4719-3.57097-7.87297-5.39282-12.29883-5.45508zm678.40234 15.01563-33.8281 37.88867L1250 944.78125v-82.44727zm29.4902 25.58203L1270.1191 1030H1300V904.25977c-10.0616-8.52155-20.1557-17.08062-30.1934-25.18555zM1160 929.31445v88.25975l39.627-39.62889zm90 83.57815L1232.3184 1030h17.7871zm50 17.1191-207.918.2403c.9807 24.8642-4.3785 50.9036-22.082 79.748 30.0393 6.6742 53.3464 13.3408 70 20-4.2126 5.9448-8.8503 11.4179-14.4277 16.9297 68.4565-14.5194 130.4749-70.5414 174.4277-108.8848zm-1.7363 164.5703-48.0645 35.9004 33.1699 43.1309-28.8125 19.6152-13.8925-15.8906 3.0918-2.2266 7.9238 9.961 23.4258-14.9785-29.7891-36.4473-48.1211 34.8633 30.8867 43.7343-29.664 18.2266-13.1348-16.5215 3.1914-2.0801 7.4512 10.3204 24.0996-13.8672-28.0801-37.834-49.1406 32.7637 28.6875 45.5039-30.6445 16.4433-12.1465-17.2597 3.3086-1.8907 6.834 10.7383 24.8691-12.4355-25.8203-39.4121-51.2754 30.0156 28.875 45.8008-30.6445 16.4433-12.1465-17.2597 3.3086-1.8907 6.834 10.7383 24.8691-12.4355-25.75-39.3047-49.4434 27.4687 8.0098 9.2754 37.5078-20.8379 12.2481 18.6953-3.129 1.5645-7.166-11.2617-24.6914 14.1093 25.8535 36.7403 51.3555-27.5567-29.125-46.1992 30.7246-17.9844 12.1778 18.5879-3.129 1.5645-7.166-11.2617-24.6914 14.1093 25.8535 36.7403 51.3555-27.5567-29.3125-46.4961 29.9141-19.9472 13.2441 17.8457-3.0332 1.7441-7.8125-10.8222-23.8242 15.5273 27.957 35.166 49.6231-30.4902-31.4258-44.5 29.3516-21.2656 14.0917 17.2421-2.9492 1.8848-8.3086-10.4473-23.0722 16.625 29.5683 33.8204L1300 1276.8086v-1.2539l-32.8691-42.7402 29.1113-21.7442 3.7578 4.5977v-18.961zm.7597 25.1035-23.0722 16.625L1300 1263.8184v-18.2325l-6.3359-7.248 3.0918-2.2266 3.2441 4.0782v-19.2754z"/></symbol><symbol id="b" preserveAspectRatio="none" viewBox="0 0 1300 2000"><path fill="#FC4" d="M320.35352 0c60.63574 94.993578 91.19275 153.28321 115.7871 219.85938 186.78577-16.68671 339.96176-8.71211 490.73438 14.79296C947.96735 174.50898 969.46066 124.31333 1065.7266 0ZM1090 78.564453C1075 78.62634 1060 87.5 1060 110c0 20 14.9923 80.99618-5 95 26.0546 40.32909 25.8826 70.23604 3.9102 91.48047 5.2859-7.54457 3.0768-21.74945-12.3418-23.12305C1021.6671 271.13904 1025 320 1060 320c65.192 0 25-130 25-215 5 20 35 20 35-5 0-12.747549-15-21.497434-30-21.435547zM1230 185c-.6335 0-1.2658.0446-1.8965.13477.2698 16.53209-3.9814 32.95594-13.3633 49.25585 3.8001 6.72908 9.3806 10.60937 15.2598 10.60938 11.0457 0 20-13.43146 20-30s-8.9543-30-20-30zm20 30a22.5 25 0 0 0 22.5 25 22.5 25 0 0 0 22.5-25 22.5 25 0 0 0-22.5-25 22.5 25 0 0 0-22.5 25zm-49.8809 119.83984a25.0025 25.0025 0 0 0-11.2988 2.79883c-35.5279 17.76393-52.1127 17.76393-87.6406 0a25.0025 25.0025 0 1 0-22.3594 44.72266c28.3695 14.18477 56.3091 19.30523 84.3672 15.39258l-12.5957 56.83789c-3.547 16.00591-9.343 32.20362-17.3848 48.60937-8.7424-14.0624-15.6454-27.99474-18.6992-43.14258l-11.7207-58.1289-33.4336 48.97461c-18.0281 26.40704-34.973 40.58799-50.7402 47.76953-3.2078 5.61602-19.31688 21.98986-28.87697 29.15625l-3.33789.30859c.22478.51133.46238 1.02356.68945 1.53516-.20832.13235-.44016.29517-.63672.41211.27433.006.54805.002.82227.006C1045.4999 660.93862 1178.4562 800.5884 1300 904.24219v-40.71485c-111.4047-98.01571-228.001-224.93586-280.8086-338.26172C1043.3926 517.22604 1067.0677 498.5905 1090 465c6.6704 33.08717 26.021 58.93755 45 85 19.9051-29.88632 33.3264-59.8848 40-90 28.1459 55.00122 76.5992 70.80089 125 86.70117v-2.83398c-15.5177-10.10893-29.1322-22.12201-39.0645-37.81641-26.5128-11.62957-48.2774-27.34132-63.6796-57.43945l-26.6602-52.09571c13.4695-2.64023 26.9772-7.35089 40.584-14.15429a25.0025 25.0025 0 0 0-11.0606-47.52149zM721.12695 538.33789l-24.7832 24.3125c-3.43974 6.35515-9.80246 12.74297-17.62891 17.30664l-167.94726 164.1582c8.18475 26.37835 15.65033 53.22329 22.33984 80.4961 15.82117-16.5628 15.72766-42.64338-.22265-59.04883-1.29455-1.33149-2.67662-2.57844-3.875-3.98633 1.36973 1.23444 2.57873 2.65307 3.875 3.98633 16.36219 16.82909 43.26856 17.20594 60.09765.84375s17.20792-43.26857.8457-60.09766c-1.36634-1.40534-2.82881-2.71332-4.08593-4.20117 1.45005 1.29702 2.71878 2.795 4.08593 4.20117 16.36222 16.82909 43.26857 17.2079 60.09766.84571s17.20789-43.26857.8457-60.09766c-1.4367-1.4777-2.9796-2.84961-4.29492-4.41797 1.52842 1.35713 2.85721 2.93923 4.29492 4.41797 16.36219 16.8291 43.26857 17.2079 60.09766.8457 16.82909-16.36219 17.2079-43.27052.8457-60.09961-1.50727-1.55028-3.13083-2.98324-4.5039-4.63281 1.60731 1.41666 2.99533 3.08119 4.5039 4.63281 9.83788 10.1186 24.05671 14.69416 37.98633 11.79493 3.19077-15.77931 6.68275-31.59182 10.50781-47.4375-15.56973-3.20344-30.43581-7.74596-43.08203-13.82227zm-6.25781 109.56445c-16.82909 16.36219-17.20789 43.26857-.8457 60.09766 1.1193 1.15124 2.30314 2.23856 3.34961 3.44531-1.17755-1.08057-2.23062-2.29439-3.34961-3.44531-16.36219-16.8291-43.26857-17.2079-60.09766-.8457-16.82909 16.3622-17.20789 43.26856-.8457 60.09765 1.1897 1.22365 2.45321 2.37569 3.56054 3.66211-1.25477-1.14313-2.37086-2.43848-3.56054-3.66211-16.36219-16.82909-43.26857-17.2079-60.09766-.8457-16.82909 16.36219-17.20789 43.27052-.8457 60.09961 1.26003 1.29598 2.60129 2.50962 3.76953 3.87695-1.33197-1.20467-2.50863-2.58007-3.76953-3.87695-15.97099-16.42673-42.08017-17.23188-59.02539-1.88086 6.79497 27.70397 12.78973 55.85006 17.91601 84.40039l183.16211-179.25195c3.06199-31.15672 7.28607-62.46767 12.71875-93.91797-11.87458-.59219-23.50187 3.74654-32.03906 12.04687zm241.97656-69.66015-12.51172 22.57031c9.7977 9.49496 18.74862 19.68515 26.75977 30.3457C1011.4062 684.80258 1032.5 752.15401 1032.5 823.52734c0 71.37334-21.0928 138.72556-61.40625 192.37106-23.73126 31.5795-55.7159 59.0296-93.49805 76.5137l45.03711 3.3399c26.85062-17.8534 49.97766-40.2562 68.44727-64.834C1034.9148 972.58647 1057.5 899.82615 1057.5 823.52734c0-76.29902-22.5863-149.05858-66.41992-207.38867-10.07587-13.40811-21.53784-26.16868-34.23438-37.89648zm-204.82226 29.74219c-1.33587 6.7806-2.61669 13.6615-3.8418 20.58398 1.22454-6.85521 2.50001-13.71567 3.8418-20.58398zm150.8789 83.05273c-43.3446 110.76857-55.47262 213.14531-43.95312 308.99219 14.99585-9.7282 28.69919-22.90117 40.19531-38.19922C926.445 925.50096 942.5 876.82759 942.5 823.52734c0-50.70083-14.52676-97.21265-39.59766-132.49023zM1130 741.30078V1030h105l15-17.5742v-67.64455l-43.5117-53.40039 33.8281-37.88867-43.3203-41.57227L1160 853.36133v-79.35156ZM570.73438 925l-14.62696 14.32227 4.34375 30.22656L570 960l20 20 20-20 20 20 20-20 20 20 20-20 20 20 20-20 2.23633 2.23633L729.81836 925ZM1160 929.31445l39.627 48.63086L1160 1017.5742ZM1090 1010c-21.1009 28.4151-40.8791 57.8315-74.3086 76.9199a15.0015 15.0015 0 0 0-8.0644-2.7597 15.0015 15.0015 0 0 0-15.09966 18.8339c9.71466 38.8587 9.68986 53.5165.32227 81.6192a15.0015 15.0015 0 0 0 25.97069 14.207L1090 1270c3.7639-21.3506 4.8361-44.9333-20-90 29.4056-9.9196 53.1137-26.1698 70-50-16.6536-6.6592-39.9607-13.3258-70-20 22.6933-36.9744 25.1036-69.3407 20-100zm-30.6602 72.209c-2.3985 5.1707-5.0978 10.4528-8.5156 16.0215l-16.5039 26.8906 30.7988 6.8437c12.6158 2.803 23.6823 5.5942 33.6817 8.3457-10.2327 7.6164-22.1079 13.6855-35.9922 18.3692l-25.5059 8.6055 12.9922 23.5742c3.1687 5.7497 5.7744 10.8839 8.0547 15.6699l-23.6191-23.6191c-2.5241-2.5906-5.5187-4.4386-8.7149-5.5489 4.8888-21.7441 4.2881-42.2228-1.6074-69.6523.8234-.3605 1.6338-.7742 2.4277-1.2422 12.4592-7.1126 23.0261-15.4212 32.5039-24.2578zM1300 1287.623c-63.4022 53.9696-136.2743 97.4728-213.8945 136.4004l22.3828 22.4258c68.061-34.6003 132.9608-73.2333 191.5117-119.9609z"/></symbol><path id="i" d="M-82.4-130.4H82.4v260.8H-82.4z"/></defs><rect width="239" height="335" x="-119.5" y="-167.5" fill="#fff" stroke="#000" rx="12" ry="12"/><use xlink:href="#b" width="164.8" height="260.8" x="-82.4" y="-130.4"/><use xlink:href="#b" width="164.8" height="260.8" x="-82.4" y="-130.4" transform="rotate(180)"/><use xlink:href="#c" width="164.8" height="260.8" x="-82.4" y="-130.4"/><use xlink:href="#c" width="164.8" height="260.8" x="-82.4" y="-130.4" transform="rotate(180)"/><use xlink:href="#d" width="164.8" height="260.8" x="-82.4" y="-130.4"/><use xlink:href="#d" width="164.8" height="260.8" x="-82.4" y="-130.4" transform="rotate(180)"/><use xlink:href="#e" width="164.8" height="260.8" x="-82.4" y="-130.4"/><use xlink:href="#e" width="164.8" height="260.8" x="-82.4" y="-130.4" transform="rotate(180)"/><use xlink:href="#f" width="164.8" height="260.8" x="-82.4" y="-130.4"/><use xlink:href="#f" width="164.8" height="260.8" x="-82.4" y="-130.4" transform="rotate(180)"/><use xlink:href="#g" width="164.8" height="260.8" x="-82.4" y="-130.4"/><use xlink:href="#g" width="164.8" height="260.8" x="-82.4" y="-130.4" transform="rotate(180)"/><use xlink:href="#h" width="32" height="32" x="-114.4" y="-156"/><use xlink:href="#a" width="26.769" height="26.769" x="-111.784" y="-119"/><use xlink:href="#a" width="55.68" height="55.68" x="-89.68" y="-132.16"/><g transform="rotate(180)"><use xlink:href="#h" width="32" height="32" x="-114.4" y="-156"/><use xlink:href="#a" width="26.769" height="26.769" x="-111.784" y="-119"/><use xlink:href="#a" width="55.68" height="55.68" x="-89.68" y="-132.16"/></g><use xlink:href="#i" fill="none" stroke="#44F"/></svg>
